<?xml version="1.0" encoding="UTF-8" standalone="no"?>
<!DOCTYPE svg PUBLIC "-//W3C//DTD SVG 1.1//EN"
 "http://www.w3.org/Graphics/SVG/1.1/DTD/svg11.dtd">
<!-- Generated by graphviz version 11.0.0 (0)
 -->
<!-- Title: Fifth Pages: 1 -->
<svg width="306pt" height="476pt"
 viewBox="0.00 0.00 306.00 476.00" xmlns="http://www.w3.org/2000/svg" xmlns:xlink="http://www.w3.org/1999/xlink">
<g id="graph0" class="graph" transform="scale(1 1) rotate(0) translate(4 472)">
<title>Fifth</title>
<polygon fill="white" stroke="none" points="-4,4 -4,-472 302,-472 302,4 -4,4"/>
<!-- A -->
<g id="node1" class="node">
<title>A</title>
<ellipse fill="none" stroke="black" cx="27" cy="-450" rx="27" ry="18"/>
<text text-anchor="middle" x="27" y="-444.95" font-family="Times,serif" font-size="14.00">A</text>
</g>
<!-- C -->
<g id="node2" class="node">
<title>C</title>
<ellipse fill="none" stroke="black" cx="27" cy="-378" rx="27" ry="18"/>
<text text-anchor="middle" x="27" y="-372.95" font-family="Times,serif" font-size="14.00">C</text>
</g>
<!-- A&#45;&gt;C -->
<g id="edge1" class="edge">
<title>A&#45;&gt;C</title>
<path fill="none" stroke="black" d="M27,-431.7C27,-424.41 27,-415.73 27,-407.54"/>
<polygon fill="black" stroke="black" points="30.5,-407.62 27,-397.62 23.5,-407.62 30.5,-407.62"/>
</g>
<!-- B -->
<g id="node3" class="node">
<title>B</title>
<ellipse fill="none" stroke="black" cx="99" cy="-378" rx="27" ry="18"/>
<text text-anchor="middle" x="99" y="-372.95" font-family="Times,serif" font-size="14.00">B</text>
</g>
<!-- F -->
<g id="node4" class="node">
<title>F</title>
<ellipse fill="none" stroke="black" cx="99" cy="-234" rx="27" ry="18"/>
<text text-anchor="middle" x="99" y="-228.95" font-family="Times,serif" font-size="14.00">F</text>
</g>
<!-- B&#45;&gt;F -->
<g id="edge2" class="edge">
<title>B&#45;&gt;F</title>
<path fill="none" stroke="black" d="M99,-359.59C99,-335.61 99,-292.14 99,-263.42"/>
<polygon fill="black" stroke="black" points="102.5,-263.62 99,-253.62 95.5,-263.62 102.5,-263.62"/>
</g>
<!-- J -->
<g id="node5" class="node">
<title>J</title>
<ellipse fill="none" stroke="black" cx="171" cy="-306" rx="27" ry="18"/>
<text text-anchor="middle" x="171" y="-300.95" font-family="Times,serif" font-size="14.00">J</text>
</g>
<!-- B&#45;&gt;J -->
<g id="edge3" class="edge">
<title>B&#45;&gt;J</title>
<path fill="none" stroke="black" d="M113.92,-362.5C123.77,-352.92 136.86,-340.19 148.03,-329.34"/>
<polygon fill="black" stroke="black" points="150.29,-332.02 155.02,-322.54 145.41,-327 150.29,-332.02"/>
</g>
<!-- J&#45;&gt;F -->
<g id="edge10" class="edge">
<title>J&#45;&gt;F</title>
<path fill="none" stroke="black" d="M156.08,-290.5C146.23,-280.92 133.14,-268.19 121.97,-257.34"/>
<polygon fill="black" stroke="black" points="124.59,-255 114.98,-250.54 119.71,-260.02 124.59,-255"/>
</g>
<!-- K -->
<g id="node9" class="node">
<title>K</title>
<ellipse fill="none" stroke="black" cx="243" cy="-234" rx="27" ry="18"/>
<text text-anchor="middle" x="243" y="-228.95" font-family="Times,serif" font-size="14.00">K</text>
</g>
<!-- J&#45;&gt;K -->
<g id="edge12" class="edge">
<title>J&#45;&gt;K</title>
<path fill="none" stroke="black" d="M185.92,-290.5C195.77,-280.92 208.86,-268.19 220.03,-257.34"/>
<polygon fill="black" stroke="black" points="222.29,-260.02 227.02,-250.54 217.41,-255 222.29,-260.02"/>
</g>
<!-- I -->
<g id="node11" class="node">
<title>I</title>
<ellipse fill="none" stroke="black" cx="171" cy="-234" rx="27" ry="18"/>
<text text-anchor="middle" x="171" y="-228.95" font-family="Times,serif" font-size="14.00">I</text>
</g>
<!-- J&#45;&gt;I -->
<g id="edge11" class="edge">
<title>J&#45;&gt;I</title>
<path fill="none" stroke="black" d="M165.12,-288.05C164.33,-280.57 164.08,-271.58 164.37,-263.14"/>
<polygon fill="black" stroke="black" points="167.85,-263.51 165.04,-253.3 160.87,-263.04 167.85,-263.51"/>
</g>
<!-- D -->
<g id="node6" class="node">
<title>D</title>
<ellipse fill="none" stroke="black" cx="188" cy="-162" rx="27" ry="18"/>
<text text-anchor="middle" x="188" y="-156.95" font-family="Times,serif" font-size="14.00">D</text>
</g>
<!-- D&#45;&gt;B -->
<g id="edge4" class="edge">
<title>D&#45;&gt;B</title>
<path fill="none" stroke="black" d="M161.33,-165.82C131.58,-170.55 84.8,-183.08 63,-216 35.2,-257.99 62.56,-318.24 82.43,-351.86"/>
<polygon fill="black" stroke="black" points="79.28,-353.42 87.5,-360.11 85.24,-349.75 79.28,-353.42"/>
</g>
<!-- G -->
<g id="node7" class="node">
<title>G</title>
<ellipse fill="none" stroke="black" cx="243" cy="-90" rx="27" ry="18"/>
<text text-anchor="middle" x="243" y="-84.95" font-family="Times,serif" font-size="14.00">G</text>
</g>
<!-- D&#45;&gt;G -->
<g id="edge5" class="edge">
<title>D&#45;&gt;G</title>
<path fill="none" stroke="black" d="M200.21,-145.46C207.11,-136.67 215.91,-125.48 223.73,-115.53"/>
<polygon fill="black" stroke="black" points="226.47,-117.71 229.89,-107.68 220.96,-113.38 226.47,-117.71"/>
</g>
<!-- E -->
<g id="node8" class="node">
<title>E</title>
<ellipse fill="none" stroke="black" cx="270" cy="-18" rx="27" ry="18"/>
<text text-anchor="middle" x="270" y="-12.95" font-family="Times,serif" font-size="14.00">E</text>
</g>
<!-- G&#45;&gt;E -->
<g id="edge6" class="edge">
<title>G&#45;&gt;E</title>
<path fill="none" stroke="black" d="M249.54,-72.05C252.52,-64.32 256.13,-54.96 259.48,-46.27"/>
<polygon fill="black" stroke="black" points="262.65,-47.79 262.98,-37.2 256.12,-45.27 262.65,-47.79"/>
</g>
<!-- G&#45;&gt;K -->
<g id="edge7" class="edge">
<title>G&#45;&gt;K</title>
<path fill="none" stroke="black" d="M243,-108.11C243,-131.92 243,-175.37 243,-204.22"/>
<polygon fill="black" stroke="black" points="239.5,-204.07 243,-214.07 246.5,-204.07 239.5,-204.07"/>
</g>
<!-- K&#45;&gt;D -->
<g id="edge13" class="edge">
<title>K&#45;&gt;D</title>
<path fill="none" stroke="black" d="M230.79,-217.46C223.89,-208.67 215.09,-197.48 207.27,-187.53"/>
<polygon fill="black" stroke="black" points="210.04,-185.38 201.11,-179.68 204.53,-189.71 210.04,-185.38"/>
</g>
<!-- H -->
<g id="node10" class="node">
<title>H</title>
<ellipse fill="none" stroke="black" cx="171" cy="-378" rx="27" ry="18"/>
<text text-anchor="middle" x="171" y="-372.95" font-family="Times,serif" font-size="14.00">H</text>
</g>
<!-- H&#45;&gt;J -->
<g id="edge8" class="edge">
<title>H&#45;&gt;J</title>
<path fill="none" stroke="black" d="M171,-359.7C171,-352.41 171,-343.73 171,-335.54"/>
<polygon fill="black" stroke="black" points="174.5,-335.62 171,-325.62 167.5,-335.62 174.5,-335.62"/>
</g>
<!-- I&#45;&gt;J -->
<g id="edge9" class="edge">
<title>I&#45;&gt;J</title>
<path fill="none" stroke="black" d="M176.86,-251.79C177.66,-259.25 177.92,-268.24 177.64,-276.69"/>
<polygon fill="black" stroke="black" points="174.16,-276.33 176.98,-286.54 181.14,-276.8 174.16,-276.33"/>
</g>
<!-- L -->
<g id="node12" class="node">
<title>L</title>
<ellipse fill="none" stroke="black" cx="226" cy="-450" rx="27" ry="18"/>
<text text-anchor="middle" x="226" y="-444.95" font-family="Times,serif" font-size="14.00">L</text>
</g>
<!-- L&#45;&gt;J -->
<g id="edge16" class="edge">
<title>L&#45;&gt;J</title>
<path fill="none" stroke="black" d="M224.3,-431.67C222.05,-413.29 217.11,-383.69 207,-360 202.75,-350.04 196.52,-339.99 190.44,-331.36"/>
<polygon fill="black" stroke="black" points="193.4,-329.48 184.65,-323.52 187.77,-333.64 193.4,-329.48"/>
</g>
<!-- L&#45;&gt;E -->
<g id="edge14" class="edge">
<title>L&#45;&gt;E</title>
<path fill="none" stroke="black" d="M239.54,-434.09C260.4,-409.52 298,-358.14 298,-307 298,-307 298,-307 298,-161 298,-120.59 286.95,-74.9 278.73,-46.52"/>
<polygon fill="black" stroke="black" points="282.19,-45.86 275.97,-37.29 275.48,-47.87 282.19,-45.86"/>
</g>
<!-- L&#45;&gt;H -->
<g id="edge15" class="edge">
<title>L&#45;&gt;H</title>
<path fill="none" stroke="black" d="M213.79,-433.46C206.89,-424.67 198.09,-413.48 190.27,-403.53"/>
<polygon fill="black" stroke="black" points="193.04,-401.38 184.11,-395.68 187.53,-405.71 193.04,-401.38"/>
</g>
</g>
</svg>
