<?xml version="1.0" encoding="UTF-8" standalone="no"?>
<!DOCTYPE svg PUBLIC "-//W3C//DTD SVG 1.1//EN"
 "http://www.w3.org/Graphics/SVG/1.1/DTD/svg11.dtd">
<!-- Generated by graphviz version 11.0.0 (0)
 -->
<!-- Title: Fifth Pages: 1 -->
<svg width="331pt" height="487pt"
 viewBox="0.00 0.00 331.25 486.50" xmlns="http://www.w3.org/2000/svg" xmlns:xlink="http://www.w3.org/1999/xlink">
<g id="graph0" class="graph" transform="scale(1 1) rotate(0) translate(4 482.5)">
<title>Fifth</title>
<polygon fill="white" stroke="none" points="-4,4 -4,-482.5 327.25,-482.5 327.25,4 -4,4"/>
<!-- A -->
<g id="node1" class="node">
<title>A</title>
<ellipse fill="none" stroke="black" cx="200" cy="-460.5" rx="27" ry="18"/>
<text text-anchor="middle" x="200" y="-455.45" font-family="Times,serif" font-size="14.00">A</text>
</g>
<!-- B -->
<g id="node2" class="node">
<title>B</title>
<ellipse fill="none" stroke="black" cx="83" cy="-372" rx="27" ry="18"/>
<text text-anchor="middle" x="83" y="-366.95" font-family="Times,serif" font-size="14.00">B</text>
</g>
<!-- A&#45;&gt;B -->
<g id="edge1" class="edge">
<title>A&#45;&gt;B</title>
<path fill="none" stroke="black" d="M175.24,-452.87C157.99,-447.35 135.18,-438.16 118.5,-424.5 109.96,-417.5 102.6,-407.93 96.83,-398.94"/>
<polygon fill="black" stroke="black" points="99.92,-397.3 91.79,-390.5 93.91,-400.88 99.92,-397.3"/>
<text text-anchor="middle" x="124.75" y="-411.2" font-family="Times,serif" font-size="14.00">15</text>
</g>
<!-- D -->
<g id="node3" class="node">
<title>D</title>
<ellipse fill="none" stroke="black" cx="138" cy="-195" rx="27" ry="18"/>
<text text-anchor="middle" x="138" y="-189.95" font-family="Times,serif" font-size="14.00">D</text>
</g>
<!-- A&#45;&gt;D -->
<g id="edge2" class="edge">
<title>A&#45;&gt;D</title>
<path fill="none" stroke="black" d="M198.36,-442.15C194.34,-403.39 182.32,-307.18 156,-231 155.04,-228.23 153.9,-225.41 152.67,-222.63"/>
<polygon fill="black" stroke="black" points="155.82,-221.1 148.27,-213.67 149.53,-224.19 155.82,-221.1"/>
<text text-anchor="middle" x="188.75" y="-322.7" font-family="Times,serif" font-size="14.00">14</text>
</g>
<!-- E -->
<g id="node4" class="node">
<title>E</title>
<ellipse fill="none" stroke="black" cx="295" cy="-106.5" rx="27" ry="18"/>
<text text-anchor="middle" x="295" y="-101.45" font-family="Times,serif" font-size="14.00">E</text>
</g>
<!-- A&#45;&gt;E -->
<g id="edge3" class="edge">
<title>A&#45;&gt;E</title>
<path fill="none" stroke="black" d="M224.58,-452.57C257.55,-441.61 312,-416.85 312,-373 312,-373 312,-373 312,-194 312,-174.1 307.62,-152.11 303.3,-135.28"/>
<polygon fill="black" stroke="black" points="306.78,-134.73 300.78,-126 300.02,-136.57 306.78,-134.73"/>
<text text-anchor="middle" x="317.62" y="-278.45" font-family="Times,serif" font-size="14.00">&#45;3</text>
</g>
<!-- H -->
<g id="node5" class="node">
<title>H</title>
<ellipse fill="none" stroke="black" cx="206" cy="-106.5" rx="27" ry="18"/>
<text text-anchor="middle" x="206" y="-101.45" font-family="Times,serif" font-size="14.00">H</text>
</g>
<!-- A&#45;&gt;H -->
<g id="edge4" class="edge">
<title>A&#45;&gt;H</title>
<path fill="none" stroke="black" d="M218.11,-446.78C237.34,-431.62 265,-404.37 265,-373 265,-373 265,-373 265,-194 265,-170.28 264.15,-162.24 251,-142.5 246.72,-136.08 240.88,-130.33 234.82,-125.43"/>
<polygon fill="black" stroke="black" points="237.29,-122.9 227.16,-119.78 233.13,-128.53 237.29,-122.9"/>
<text text-anchor="middle" x="270.62" y="-278.45" font-family="Times,serif" font-size="14.00">&#45;6</text>
</g>
<!-- I -->
<g id="node6" class="node">
<title>I</title>
<ellipse fill="none" stroke="black" cx="210" cy="-195" rx="27" ry="18"/>
<text text-anchor="middle" x="210" y="-189.95" font-family="Times,serif" font-size="14.00">I</text>
</g>
<!-- A&#45;&gt;I -->
<g id="edge5" class="edge">
<title>A&#45;&gt;I</title>
<path fill="none" stroke="black" d="M200.66,-442.21C202.34,-397.82 206.83,-279.49 208.91,-224.65"/>
<polygon fill="black" stroke="black" points="212.4,-224.99 209.28,-214.87 205.41,-224.73 212.4,-224.99"/>
<text text-anchor="middle" x="208.38" y="-322.7" font-family="Times,serif" font-size="14.00">6</text>
</g>
<!-- C -->
<g id="node7" class="node">
<title>C</title>
<ellipse fill="none" stroke="black" cx="126" cy="-283.5" rx="27" ry="18"/>
<text text-anchor="middle" x="126" y="-278.45" font-family="Times,serif" font-size="14.00">C</text>
</g>
<!-- B&#45;&gt;C -->
<g id="edge6" class="edge">
<title>B&#45;&gt;C</title>
<path fill="none" stroke="black" d="M91.5,-354.66C94.53,-348.79 97.95,-342.11 101,-336 105.03,-327.93 109.35,-319.11 113.24,-311.09"/>
<polygon fill="black" stroke="black" points="116.36,-312.67 117.56,-302.15 110.06,-309.63 116.36,-312.67"/>
<text text-anchor="middle" x="111.38" y="-322.7" font-family="Times,serif" font-size="14.00">1</text>
</g>
<!-- F -->
<g id="node8" class="node">
<title>F</title>
<ellipse fill="none" stroke="black" cx="54" cy="-283.5" rx="27" ry="18"/>
<text text-anchor="middle" x="54" y="-278.45" font-family="Times,serif" font-size="14.00">F</text>
</g>
<!-- B&#45;&gt;F -->
<g id="edge7" class="edge">
<title>B&#45;&gt;F</title>
<path fill="none" stroke="black" d="M70.34,-355.88C66.1,-350.02 61.81,-343.04 59.25,-336 56.63,-328.79 55.17,-320.67 54.39,-313.04"/>
<polygon fill="black" stroke="black" points="57.89,-312.93 53.76,-303.18 50.91,-313.38 57.89,-312.93"/>
<text text-anchor="middle" x="62.38" y="-322.7" font-family="Times,serif" font-size="14.00">0</text>
</g>
<!-- J -->
<g id="node10" class="node">
<title>J</title>
<ellipse fill="none" stroke="black" cx="27" cy="-18" rx="27" ry="18"/>
<text text-anchor="middle" x="27" y="-12.95" font-family="Times,serif" font-size="14.00">J</text>
</g>
<!-- H&#45;&gt;J -->
<g id="edge13" class="edge">
<title>H&#45;&gt;J</title>
<path fill="none" stroke="black" d="M184.41,-95.07C153.01,-79.89 94.56,-51.65 58.4,-34.17"/>
<polygon fill="black" stroke="black" points="60.28,-31.19 49.75,-29.99 57.23,-37.5 60.28,-31.19"/>
<text text-anchor="middle" x="135.38" y="-57.2" font-family="Times,serif" font-size="14.00">2</text>
</g>
<!-- I&#45;&gt;E -->
<g id="edge14" class="edge">
<title>I&#45;&gt;E</title>
<path fill="none" stroke="black" d="M224.42,-179.33C237.69,-165.82 257.56,-145.6 272.85,-130.04"/>
<polygon fill="black" stroke="black" points="275.22,-132.62 279.73,-123.04 270.23,-127.72 275.22,-132.62"/>
<text text-anchor="middle" x="263.38" y="-145.7" font-family="Times,serif" font-size="14.00">2</text>
</g>
<!-- I&#45;&gt;H -->
<g id="edge15" class="edge">
<title>I&#45;&gt;H</title>
<path fill="none" stroke="black" d="M208.61,-176.56C208.2,-170.96 207.79,-164.72 207.5,-159 207.13,-151.59 206.84,-143.56 206.62,-136.11"/>
<polygon fill="black" stroke="black" points="210.12,-136.09 206.36,-126.19 203.12,-136.28 210.12,-136.09"/>
<text text-anchor="middle" x="213.75" y="-145.7" font-family="Times,serif" font-size="14.00">14</text>
</g>
<!-- C&#45;&gt;A -->
<g id="edge8" class="edge">
<title>C&#45;&gt;A</title>
<path fill="none" stroke="black" d="M128.41,-301.9C132.78,-329.43 143.83,-384.07 167,-424.5 169.59,-429.02 172.88,-433.42 176.38,-437.49"/>
<polygon fill="black" stroke="black" points="173.73,-439.78 183.13,-444.67 178.83,-434.99 173.73,-439.78"/>
<text text-anchor="middle" x="153.38" y="-366.95" font-family="Times,serif" font-size="14.00">6</text>
</g>
<!-- C&#45;&gt;B -->
<g id="edge9" class="edge">
<title>C&#45;&gt;B</title>
<path fill="none" stroke="black" d="M107,-296.56C99.35,-302.48 91.27,-310.33 86.75,-319.5 83.28,-326.55 81.74,-334.81 81.23,-342.62"/>
<polygon fill="black" stroke="black" points="77.73,-342.38 81.12,-352.42 84.73,-342.45 77.73,-342.38"/>
<text text-anchor="middle" x="91.62" y="-322.7" font-family="Times,serif" font-size="14.00">&#45;5</text>
</g>
<!-- F&#45;&gt;D -->
<g id="edge10" class="edge">
<title>F&#45;&gt;D</title>
<path fill="none" stroke="black" d="M68.25,-267.83C81.28,-254.41 100.77,-234.34 115.83,-218.83"/>
<polygon fill="black" stroke="black" points="118.17,-221.44 122.63,-211.83 113.15,-216.57 118.17,-221.44"/>
<text text-anchor="middle" x="108.62" y="-234.2" font-family="Times,serif" font-size="14.00">&#45;5</text>
</g>
<!-- F&#45;&gt;I -->
<g id="edge12" class="edge">
<title>F&#45;&gt;I</title>
<path fill="none" stroke="black" d="M74.49,-271.36C87.07,-264.51 103.48,-255.53 118,-247.5 138.75,-236.02 162.07,-222.97 180.03,-212.87"/>
<polygon fill="black" stroke="black" points="181.61,-216 188.61,-208.05 178.18,-209.9 181.61,-216"/>
<text text-anchor="middle" x="148.38" y="-234.2" font-family="Times,serif" font-size="14.00">3</text>
</g>
<!-- G -->
<g id="node9" class="node">
<title>G</title>
<ellipse fill="none" stroke="black" cx="66" cy="-195" rx="27" ry="18"/>
<text text-anchor="middle" x="66" y="-189.95" font-family="Times,serif" font-size="14.00">G</text>
</g>
<!-- F&#45;&gt;G -->
<g id="edge11" class="edge">
<title>F&#45;&gt;G</title>
<path fill="none" stroke="black" d="M56.37,-265.41C57.99,-253.76 60.17,-238.05 62.04,-224.52"/>
<polygon fill="black" stroke="black" points="65.48,-225.24 63.39,-214.85 58.54,-224.27 65.48,-225.24"/>
<text text-anchor="middle" x="66.62" y="-234.2" font-family="Times,serif" font-size="14.00">&#45;3</text>
</g>
<!-- J&#45;&gt;F -->
<g id="edge16" class="edge">
<title>J&#45;&gt;F</title>
<path fill="none" stroke="black" d="M25.45,-36.3C22.8,-70.41 18.69,-148.64 30,-213 32.5,-227.25 37.49,-242.5 42.28,-255.07"/>
<polygon fill="black" stroke="black" points="39.02,-256.36 45.98,-264.36 45.53,-253.77 39.02,-256.36"/>
<text text-anchor="middle" x="27.38" y="-145.7" font-family="Times,serif" font-size="14.00">5</text>
</g>
</g>
</svg>
