<?xml version="1.0" encoding="UTF-8" standalone="no"?>
<!DOCTYPE svg PUBLIC "-//W3C//DTD SVG 1.1//EN"
 "http://www.w3.org/Graphics/SVG/1.1/DTD/svg11.dtd">
<!-- Generated by graphviz version 11.0.0 (0)
 -->
<!-- Title: Fifth Pages: 1 -->
<svg width="117pt" height="404pt"
 viewBox="0.00 0.00 117.00 404.00" xmlns="http://www.w3.org/2000/svg" xmlns:xlink="http://www.w3.org/1999/xlink">
<g id="graph0" class="graph" transform="scale(1 1) rotate(0) translate(4 400)">
<title>Fifth</title>
<polygon fill="white" stroke="none" points="-4,4 -4,-400 113,-400 113,4 -4,4"/>
<!-- f -->
<g id="node1" class="node">
<title>f</title>
<ellipse fill="none" stroke="black" cx="54" cy="-378" rx="27" ry="18"/>
<text text-anchor="middle" x="54" y="-372.95" font-family="Times,serif" font-size="14.00">f</text>
</g>
<!-- e -->
<g id="node2" class="node">
<title>e</title>
<ellipse fill="none" stroke="black" cx="54" cy="-306" rx="27" ry="18"/>
<text text-anchor="middle" x="54" y="-300.95" font-family="Times,serif" font-size="14.00">e</text>
</g>
<!-- f&#45;&gt;e -->
<g id="edge1" class="edge">
<title>f&#45;&gt;e</title>
<path fill="none" stroke="black" d="M54,-359.7C54,-352.41 54,-343.73 54,-335.54"/>
<polygon fill="black" stroke="black" points="57.5,-335.62 54,-325.62 50.5,-335.62 57.5,-335.62"/>
</g>
<!-- d -->
<g id="node3" class="node">
<title>d</title>
<ellipse fill="none" stroke="black" cx="54" cy="-234" rx="27" ry="18"/>
<text text-anchor="middle" x="54" y="-228.95" font-family="Times,serif" font-size="14.00">d</text>
</g>
<!-- e&#45;&gt;d -->
<g id="edge2" class="edge">
<title>e&#45;&gt;d</title>
<path fill="none" stroke="black" d="M54,-287.7C54,-280.41 54,-271.73 54,-263.54"/>
<polygon fill="black" stroke="black" points="57.5,-263.62 54,-253.62 50.5,-263.62 57.5,-263.62"/>
</g>
<!-- c -->
<g id="node4" class="node">
<title>c</title>
<ellipse fill="none" stroke="black" cx="82" cy="-162" rx="27" ry="18"/>
<text text-anchor="middle" x="82" y="-156.95" font-family="Times,serif" font-size="14.00">c</text>
</g>
<!-- d&#45;&gt;c -->
<g id="edge3" class="edge">
<title>d&#45;&gt;c</title>
<path fill="none" stroke="black" d="M60.64,-216.41C63.77,-208.57 67.6,-198.99 71.15,-190.13"/>
<polygon fill="black" stroke="black" points="74.39,-191.46 74.85,-180.88 67.89,-188.86 74.39,-191.46"/>
</g>
<!-- b -->
<g id="node5" class="node">
<title>b</title>
<ellipse fill="none" stroke="black" cx="27" cy="-90" rx="27" ry="18"/>
<text text-anchor="middle" x="27" y="-84.95" font-family="Times,serif" font-size="14.00">b</text>
</g>
<!-- d&#45;&gt;b -->
<g id="edge4" class="edge">
<title>d&#45;&gt;b</title>
<path fill="none" stroke="black" d="M50.74,-215.87C46.18,-191.88 37.84,-147.99 32.35,-119.16"/>
<polygon fill="black" stroke="black" points="35.86,-118.85 30.55,-109.68 28.98,-120.15 35.86,-118.85"/>
</g>
<!-- c&#45;&gt;b -->
<g id="edge5" class="edge">
<title>c&#45;&gt;b</title>
<path fill="none" stroke="black" d="M69.79,-145.46C62.89,-136.67 54.09,-125.48 46.27,-115.53"/>
<polygon fill="black" stroke="black" points="49.04,-113.38 40.11,-107.68 43.53,-117.71 49.04,-113.38"/>
</g>
<!-- a -->
<g id="node6" class="node">
<title>a</title>
<ellipse fill="none" stroke="black" cx="54" cy="-18" rx="27" ry="18"/>
<text text-anchor="middle" x="54" y="-12.95" font-family="Times,serif" font-size="14.00">a</text>
</g>
<!-- c&#45;&gt;a -->
<g id="edge6" class="edge">
<title>c&#45;&gt;a</title>
<path fill="none" stroke="black" d="M78.62,-143.87C73.89,-119.88 65.24,-75.99 59.55,-47.16"/>
<polygon fill="black" stroke="black" points="63.05,-46.81 57.68,-37.67 56.18,-48.16 63.05,-46.81"/>
</g>
<!-- b&#45;&gt;a -->
<g id="edge7" class="edge">
<title>b&#45;&gt;a</title>
<path fill="none" stroke="black" d="M33.54,-72.05C36.52,-64.32 40.13,-54.96 43.48,-46.27"/>
<polygon fill="black" stroke="black" points="46.65,-47.79 46.98,-37.2 40.12,-45.27 46.65,-47.79"/>
</g>
</g>
</svg>
