<?xml version="1.0" encoding="UTF-8" standalone="no"?>
<!DOCTYPE svg PUBLIC "-//W3C//DTD SVG 1.1//EN"
 "http://www.w3.org/Graphics/SVG/1.1/DTD/svg11.dtd">
<!-- Generated by graphviz version 11.0.0 (0)
 -->
<!-- Title: Fifth Pages: 1 -->
<svg width="216pt" height="476pt"
 viewBox="0.00 0.00 216.06 476.00" xmlns="http://www.w3.org/2000/svg" xmlns:xlink="http://www.w3.org/1999/xlink">
<g id="graph0" class="graph" transform="scale(1 1) rotate(0) translate(4 472)">
<title>Fifth</title>
<polygon fill="white" stroke="none" points="-4,4 -4,-472 212.06,-472 212.06,4 -4,4"/>
<!-- C -->
<g id="node1" class="node">
<title>C</title>
<ellipse fill="none" stroke="black" cx="76.16" cy="-450" rx="27" ry="18"/>
<text text-anchor="middle" x="76.16" y="-444.95" font-family="Times,serif" font-size="14.00">C</text>
</g>
<!-- A -->
<g id="node2" class="node">
<title>A</title>
<ellipse fill="none" stroke="black" cx="76.16" cy="-378" rx="27" ry="18"/>
<text text-anchor="middle" x="76.16" y="-372.95" font-family="Times,serif" font-size="14.00">A</text>
</g>
<!-- C&#45;&gt;A -->
<g id="edge1" class="edge">
<title>C&#45;&gt;A</title>
<path fill="none" stroke="black" d="M76.16,-431.7C76.16,-424.41 76.16,-415.73 76.16,-407.54"/>
<polygon fill="black" stroke="black" points="79.66,-407.62 76.16,-397.62 72.66,-407.62 79.66,-407.62"/>
</g>
<!-- I -->
<g id="node8" class="node">
<title>I</title>
<ellipse fill="none" stroke="black" cx="140.16" cy="-162" rx="27" ry="18"/>
<text text-anchor="middle" x="140.16" y="-156.95" font-family="Times,serif" font-size="14.00">I</text>
</g>
<!-- C&#45;&gt;I -->
<g id="edge15" class="edge">
<title>C&#45;&gt;I</title>
<path fill="none" stroke="black" d="M63.04,-433.85C55.08,-423.8 45.46,-409.93 40.16,-396 11.52,-320.82 -22.65,-283.47 21.16,-216 39.07,-188.41 75.05,-175.06 102.78,-168.68"/>
<polygon fill="black" stroke="black" points="103.13,-172.18 112.22,-166.72 101.71,-165.32 103.13,-172.18"/>
</g>
<!-- H -->
<g id="node10" class="node">
<title>H</title>
<ellipse fill="none" stroke="black" cx="148.16" cy="-378" rx="27" ry="18"/>
<text text-anchor="middle" x="148.16" y="-372.95" font-family="Times,serif" font-size="14.00">H</text>
</g>
<!-- C&#45;&gt;H -->
<g id="edge13" class="edge">
<title>C&#45;&gt;H</title>
<path fill="none" stroke="black" d="M91.08,-434.5C100.92,-424.92 114.02,-412.19 125.18,-401.34"/>
<polygon fill="black" stroke="black" points="127.44,-404.02 132.17,-394.54 122.56,-399 127.44,-404.02"/>
</g>
<!-- G -->
<g id="node4" class="node">
<title>G</title>
<ellipse fill="none" stroke="black" cx="167.16" cy="-306" rx="27" ry="18"/>
<text text-anchor="middle" x="167.16" y="-300.95" font-family="Times,serif" font-size="14.00">G</text>
</g>
<!-- A&#45;&gt;G -->
<g id="edge10" class="edge">
<title>A&#45;&gt;G</title>
<path fill="none" stroke="black" d="M93.27,-363.83C106.66,-353.54 125.51,-339.04 140.81,-327.26"/>
<polygon fill="black" stroke="black" points="142.82,-330.14 148.61,-321.27 138.55,-324.59 142.82,-330.14"/>
</g>
<!-- F -->
<g id="node9" class="node">
<title>F</title>
<ellipse fill="none" stroke="black" cx="95.16" cy="-306" rx="27" ry="18"/>
<text text-anchor="middle" x="95.16" y="-300.95" font-family="Times,serif" font-size="14.00">F</text>
</g>
<!-- A&#45;&gt;F -->
<g id="edge7" class="edge">
<title>A&#45;&gt;F</title>
<path fill="none" stroke="black" d="M80.76,-360.05C82.81,-352.49 85.28,-343.37 87.6,-334.85"/>
<polygon fill="black" stroke="black" points="90.96,-335.82 90.2,-325.25 84.21,-333.98 90.96,-335.82"/>
</g>
<!-- J -->
<g id="node3" class="node">
<title>J</title>
<ellipse fill="none" stroke="black" cx="57.16" cy="-234" rx="27" ry="18"/>
<text text-anchor="middle" x="57.16" y="-228.95" font-family="Times,serif" font-size="14.00">J</text>
</g>
<!-- J&#45;&gt;A -->
<g id="edge2" class="edge">
<title>J&#45;&gt;A</title>
<path fill="none" stroke="black" d="M56.09,-252.2C55.31,-270.23 55.01,-299.31 59.16,-324 60.57,-332.42 63.03,-341.34 65.65,-349.42"/>
<polygon fill="black" stroke="black" points="62.29,-350.39 68.87,-358.69 68.9,-348.1 62.29,-350.39"/>
</g>
<!-- J&#45;&gt;F -->
<g id="edge9" class="edge">
<title>J&#45;&gt;F</title>
<path fill="none" stroke="black" d="M70.78,-249.74C76.17,-257.79 82.05,-268.02 86.83,-277.49"/>
<polygon fill="black" stroke="black" points="83.58,-278.8 91.03,-286.33 89.9,-275.79 83.58,-278.8"/>
</g>
<!-- B -->
<g id="node5" class="node">
<title>B</title>
<ellipse fill="none" stroke="black" cx="167.16" cy="-234" rx="27" ry="18"/>
<text text-anchor="middle" x="167.16" y="-228.95" font-family="Times,serif" font-size="14.00">B</text>
</g>
<!-- G&#45;&gt;B -->
<g id="edge3" class="edge">
<title>G&#45;&gt;B</title>
<path fill="none" stroke="black" d="M167.16,-287.7C167.16,-280.41 167.16,-271.73 167.16,-263.54"/>
<polygon fill="black" stroke="black" points="170.66,-263.62 167.16,-253.62 163.66,-263.62 170.66,-263.62"/>
</g>
<!-- E -->
<g id="node6" class="node">
<title>E</title>
<ellipse fill="none" stroke="black" cx="167.16" cy="-90" rx="27" ry="18"/>
<text text-anchor="middle" x="167.16" y="-84.95" font-family="Times,serif" font-size="14.00">E</text>
</g>
<!-- G&#45;&gt;E -->
<g id="edge5" class="edge">
<title>G&#45;&gt;E</title>
<path fill="none" stroke="black" d="M180.91,-290.07C189.12,-280.1 198.78,-266.25 203.16,-252 217.53,-205.27 196.73,-149.27 181.27,-117.15"/>
<polygon fill="black" stroke="black" points="184.58,-115.94 176.97,-108.57 178.32,-119.08 184.58,-115.94"/>
</g>
<!-- B&#45;&gt;I -->
<g id="edge14" class="edge">
<title>B&#45;&gt;I</title>
<path fill="none" stroke="black" d="M160.62,-216.05C157.64,-208.32 154.03,-198.96 150.67,-190.27"/>
<polygon fill="black" stroke="black" points="154.04,-189.27 147.18,-181.2 147.51,-191.79 154.04,-189.27"/>
</g>
<!-- D -->
<g id="node7" class="node">
<title>D</title>
<ellipse fill="none" stroke="black" cx="167.16" cy="-18" rx="27" ry="18"/>
<text text-anchor="middle" x="167.16" y="-12.95" font-family="Times,serif" font-size="14.00">D</text>
</g>
<!-- E&#45;&gt;D -->
<g id="edge4" class="edge">
<title>E&#45;&gt;D</title>
<path fill="none" stroke="black" d="M167.16,-71.7C167.16,-64.41 167.16,-55.73 167.16,-47.54"/>
<polygon fill="black" stroke="black" points="170.66,-47.62 167.16,-37.62 163.66,-47.62 170.66,-47.62"/>
</g>
<!-- I&#45;&gt;G -->
<g id="edge12" class="edge">
<title>I&#45;&gt;G</title>
<path fill="none" stroke="black" d="M134.6,-179.79C129.47,-197.98 123.67,-227.66 131.16,-252 134.34,-262.35 140.31,-272.49 146.48,-281.09"/>
<polygon fill="black" stroke="black" points="143.6,-283.09 152.48,-288.87 149.15,-278.81 143.6,-283.09"/>
</g>
<!-- I&#45;&gt;E -->
<g id="edge6" class="edge">
<title>I&#45;&gt;E</title>
<path fill="none" stroke="black" d="M146.69,-144.05C149.68,-136.32 153.29,-126.96 156.64,-118.27"/>
<polygon fill="black" stroke="black" points="159.8,-119.79 160.14,-109.2 153.27,-117.27 159.8,-119.79"/>
</g>
<!-- F&#45;&gt;J -->
<g id="edge16" class="edge">
<title>F&#45;&gt;J</title>
<path fill="none" stroke="black" d="M81.46,-290.15C76.09,-282.11 70.22,-271.9 65.46,-262.47"/>
<polygon fill="black" stroke="black" points="68.73,-261.19 61.28,-253.66 62.4,-264.19 68.73,-261.19"/>
</g>
<!-- H&#45;&gt;G -->
<g id="edge11" class="edge">
<title>H&#45;&gt;G</title>
<path fill="none" stroke="black" d="M152.76,-360.05C154.81,-352.49 157.28,-343.37 159.6,-334.85"/>
<polygon fill="black" stroke="black" points="162.96,-335.82 162.2,-325.25 156.21,-333.98 162.96,-335.82"/>
</g>
<!-- H&#45;&gt;F -->
<g id="edge8" class="edge">
<title>H&#45;&gt;F</title>
<path fill="none" stroke="black" d="M136.39,-361.46C129.74,-352.67 121.26,-341.48 113.73,-331.53"/>
<polygon fill="black" stroke="black" points="116.63,-329.56 107.8,-323.7 111.05,-333.78 116.63,-329.56"/>
</g>
</g>
</svg>
