<?xml version="1.0" encoding="UTF-8" standalone="no"?>
<!DOCTYPE svg PUBLIC "-//W3C//DTD SVG 1.1//EN"
 "http://www.w3.org/Graphics/SVG/1.1/DTD/svg11.dtd">
<!-- Generated by graphviz version 11.0.0 (0)
 -->
<!-- Title: Fifth Pages: 1 -->
<svg width="247pt" height="476pt"
 viewBox="0.00 0.00 246.77 476.00" xmlns="http://www.w3.org/2000/svg" xmlns:xlink="http://www.w3.org/1999/xlink">
<g id="graph0" class="graph" transform="scale(1 1) rotate(0) translate(4 472)">
<title>Fifth</title>
<polygon fill="white" stroke="none" points="-4,4 -4,-472 242.77,-472 242.77,4 -4,4"/>
<!-- C (1;20) -->
<g id="node1" class="node">
<title>C (1;20)</title>
<ellipse fill="none" stroke="black" cx="137.51" cy="-450" rx="42.14" ry="18"/>
<text text-anchor="middle" x="137.51" y="-444.95" font-family="Times,serif" font-size="14.00">C (1;20)</text>
</g>
<!-- A (2;17) -->
<g id="node2" class="node">
<title>A (2;17)</title>
<ellipse fill="none" stroke="black" cx="84.51" cy="-378" rx="42.14" ry="18"/>
<text text-anchor="middle" x="84.51" y="-372.95" font-family="Times,serif" font-size="14.00">A (2;17)</text>
</g>
<!-- C (1;20)&#45;&gt;A (2;17) -->
<g id="edge1" class="edge">
<title>C (1;20)&#45;&gt;A (2;17)</title>
<path fill="none" stroke="black" d="M124.95,-432.41C118.61,-424.04 110.79,-413.71 103.72,-404.37"/>
<polygon fill="black" stroke="black" points="106.72,-402.54 97.89,-396.68 101.14,-406.76 106.72,-402.54"/>
</g>
<!-- H (18;19) -->
<g id="node3" class="node">
<title>H (18;19)</title>
<ellipse fill="none" stroke="black" cx="191.51" cy="-378" rx="47.26" ry="18"/>
<text text-anchor="middle" x="191.51" y="-372.95" font-family="Times,serif" font-size="14.00">H (18;19)</text>
</g>
<!-- C (1;20)&#45;&gt;H (18;19) -->
<g id="edge2" class="edge">
<title>C (1;20)&#45;&gt;H (18;19)</title>
<path fill="none" stroke="black" d="M150.31,-432.41C156.76,-424.04 164.73,-413.71 171.94,-404.37"/>
<polygon fill="black" stroke="black" points="174.54,-406.72 177.88,-396.67 169,-402.45 174.54,-406.72"/>
</g>
<!-- F (3;6) -->
<g id="node4" class="node">
<title>F (3;6)</title>
<ellipse fill="none" stroke="black" cx="36.51" cy="-306" rx="36.51" ry="18"/>
<text text-anchor="middle" x="36.51" y="-300.95" font-family="Times,serif" font-size="14.00">F (3;6)</text>
</g>
<!-- A (2;17)&#45;&gt;F (3;6) -->
<g id="edge3" class="edge">
<title>A (2;17)&#45;&gt;F (3;6)</title>
<path fill="none" stroke="black" d="M73.13,-360.41C67.51,-352.22 60.6,-342.14 54.31,-332.95"/>
<polygon fill="black" stroke="black" points="57.2,-330.99 48.66,-324.72 51.43,-334.94 57.2,-330.99"/>
</g>
<!-- G (7;16) -->
<g id="node5" class="node">
<title>G (7;16)</title>
<ellipse fill="none" stroke="black" cx="133.51" cy="-306" rx="42.65" ry="18"/>
<text text-anchor="middle" x="133.51" y="-300.95" font-family="Times,serif" font-size="14.00">G (7;16)</text>
</g>
<!-- A (2;17)&#45;&gt;G (7;16) -->
<g id="edge4" class="edge">
<title>A (2;17)&#45;&gt;G (7;16)</title>
<path fill="none" stroke="black" d="M96.12,-360.41C101.92,-352.13 109.06,-341.92 115.55,-332.66"/>
<polygon fill="black" stroke="black" points="118.24,-334.91 121.11,-324.71 112.51,-330.9 118.24,-334.91"/>
</g>
<!-- J (4;5) -->
<g id="node6" class="node">
<title>J (4;5)</title>
<ellipse fill="none" stroke="black" cx="36.51" cy="-234" rx="34.97" ry="18"/>
<text text-anchor="middle" x="36.51" y="-228.95" font-family="Times,serif" font-size="14.00">J (4;5)</text>
</g>
<!-- F (3;6)&#45;&gt;J (4;5) -->
<g id="edge5" class="edge">
<title>F (3;6)&#45;&gt;J (4;5)</title>
<path fill="none" stroke="black" d="M36.51,-287.7C36.51,-280.41 36.51,-271.73 36.51,-263.54"/>
<polygon fill="black" stroke="black" points="40.01,-263.62 36.51,-253.62 33.01,-263.62 40.01,-263.62"/>
</g>
<!-- B (8;15) -->
<g id="node7" class="node">
<title>B (8;15)</title>
<ellipse fill="none" stroke="black" cx="133.51" cy="-234" rx="42.14" ry="18"/>
<text text-anchor="middle" x="133.51" y="-228.95" font-family="Times,serif" font-size="14.00">B (8;15)</text>
</g>
<!-- G (7;16)&#45;&gt;B (8;15) -->
<g id="edge6" class="edge">
<title>G (7;16)&#45;&gt;B (8;15)</title>
<path fill="none" stroke="black" d="M133.51,-287.7C133.51,-280.41 133.51,-271.73 133.51,-263.54"/>
<polygon fill="black" stroke="black" points="137.01,-263.62 133.51,-253.62 130.01,-263.62 137.01,-263.62"/>
</g>
<!-- I (9;14) -->
<g id="node8" class="node">
<title>I (9;14)</title>
<ellipse fill="none" stroke="black" cx="133.51" cy="-162" rx="39.07" ry="18"/>
<text text-anchor="middle" x="133.51" y="-156.95" font-family="Times,serif" font-size="14.00">I (9;14)</text>
</g>
<!-- B (8;15)&#45;&gt;I (9;14) -->
<g id="edge7" class="edge">
<title>B (8;15)&#45;&gt;I (9;14)</title>
<path fill="none" stroke="black" d="M133.51,-215.7C133.51,-208.41 133.51,-199.73 133.51,-191.54"/>
<polygon fill="black" stroke="black" points="137.01,-191.62 133.51,-181.62 130.01,-191.62 137.01,-191.62"/>
</g>
<!-- E (10;13) -->
<g id="node9" class="node">
<title>E (10;13)</title>
<ellipse fill="none" stroke="black" cx="133.51" cy="-90" rx="46.23" ry="18"/>
<text text-anchor="middle" x="133.51" y="-84.95" font-family="Times,serif" font-size="14.00">E (10;13)</text>
</g>
<!-- I (9;14)&#45;&gt;E (10;13) -->
<g id="edge8" class="edge">
<title>I (9;14)&#45;&gt;E (10;13)</title>
<path fill="none" stroke="black" d="M133.51,-143.7C133.51,-136.41 133.51,-127.73 133.51,-119.54"/>
<polygon fill="black" stroke="black" points="137.01,-119.62 133.51,-109.62 130.01,-119.62 137.01,-119.62"/>
</g>
<!-- D (11;12) -->
<g id="node10" class="node">
<title>D (11;12)</title>
<ellipse fill="none" stroke="black" cx="133.51" cy="-18" rx="47.26" ry="18"/>
<text text-anchor="middle" x="133.51" y="-12.95" font-family="Times,serif" font-size="14.00">D (11;12)</text>
</g>
<!-- E (10;13)&#45;&gt;D (11;12) -->
<g id="edge9" class="edge">
<title>E (10;13)&#45;&gt;D (11;12)</title>
<path fill="none" stroke="black" d="M133.51,-71.7C133.51,-64.41 133.51,-55.73 133.51,-47.54"/>
<polygon fill="black" stroke="black" points="137.01,-47.62 133.51,-37.62 130.01,-47.62 137.01,-47.62"/>
</g>
</g>
</svg>
