<?xml version="1.0" encoding="UTF-8" standalone="no"?>
<!DOCTYPE svg PUBLIC "-//W3C//DTD SVG 1.1//EN"
 "http://www.w3.org/Graphics/SVG/1.1/DTD/svg11.dtd">
<!-- Generated by graphviz version 11.0.0 (0)
 -->
<!-- Title: Fifth Pages: 1 -->
<svg width="328pt" height="476pt"
 viewBox="0.00 0.00 328.00 476.00" xmlns="http://www.w3.org/2000/svg" xmlns:xlink="http://www.w3.org/1999/xlink">
<g id="graph0" class="graph" transform="scale(1 1) rotate(0) translate(4 472)">
<title>Fifth</title>
<polygon fill="white" stroke="none" points="-4,4 -4,-472 324,-472 324,4 -4,4"/>
<!-- C -->
<g id="node1" class="node">
<title>C</title>
<ellipse fill="none" stroke="black" cx="27" cy="-450" rx="27" ry="18"/>
<text text-anchor="middle" x="27" y="-444.95" font-family="Times,serif" font-size="14.00">C</text>
</g>
<!-- A -->
<g id="node2" class="node">
<title>A</title>
<ellipse fill="none" stroke="black" cx="27" cy="-378" rx="27" ry="18"/>
<text text-anchor="middle" x="27" y="-372.95" font-family="Times,serif" font-size="14.00">A</text>
</g>
<!-- C&#45;&gt;A -->
<g id="edge1" class="edge">
<title>C&#45;&gt;A</title>
<path fill="none" stroke="black" d="M27,-431.7C27,-424.41 27,-415.73 27,-407.54"/>
<polygon fill="black" stroke="black" points="30.5,-407.62 27,-397.62 23.5,-407.62 30.5,-407.62"/>
</g>
<!-- F -->
<g id="node3" class="node">
<title>F</title>
<ellipse fill="none" stroke="black" cx="122" cy="-450" rx="27" ry="18"/>
<text text-anchor="middle" x="122" y="-444.95" font-family="Times,serif" font-size="14.00">F</text>
</g>
<!-- B -->
<g id="node4" class="node">
<title>B</title>
<ellipse fill="none" stroke="black" cx="145" cy="-378" rx="27" ry="18"/>
<text text-anchor="middle" x="145" y="-372.95" font-family="Times,serif" font-size="14.00">B</text>
</g>
<!-- F&#45;&gt;B -->
<g id="edge2" class="edge">
<title>F&#45;&gt;B</title>
<path fill="none" stroke="black" d="M127.57,-432.05C130.08,-424.4 133.12,-415.16 135.95,-406.56"/>
<polygon fill="black" stroke="black" points="139.21,-407.82 139.01,-397.23 132.56,-405.63 139.21,-407.82"/>
</g>
<!-- J -->
<g id="node5" class="node">
<title>J</title>
<ellipse fill="none" stroke="black" cx="128" cy="-162" rx="27" ry="18"/>
<text text-anchor="middle" x="128" y="-156.95" font-family="Times,serif" font-size="14.00">J</text>
</g>
<!-- F&#45;&gt;J -->
<g id="edge10" class="edge">
<title>F&#45;&gt;J</title>
<path fill="none" stroke="black" d="M116.73,-432.01C113.81,-421.7 110.48,-408.23 109,-396 100.12,-322.52 113.53,-235.5 121.98,-191.51"/>
<polygon fill="black" stroke="black" points="125.4,-192.27 123.92,-181.78 118.54,-190.9 125.4,-192.27"/>
</g>
<!-- D -->
<g id="node6" class="node">
<title>D</title>
<ellipse fill="none" stroke="black" cx="183" cy="-306" rx="27" ry="18"/>
<text text-anchor="middle" x="183" y="-300.95" font-family="Times,serif" font-size="14.00">D</text>
</g>
<!-- B&#45;&gt;D -->
<g id="edge4" class="edge">
<title>B&#45;&gt;D</title>
<path fill="none" stroke="black" d="M153.81,-360.76C158.27,-352.55 163.8,-342.37 168.84,-333.09"/>
<polygon fill="black" stroke="black" points="171.82,-334.94 173.51,-324.48 165.67,-331.6 171.82,-334.94"/>
</g>
<!-- J&#45;&gt;B -->
<g id="edge3" class="edge">
<title>J&#45;&gt;B</title>
<path fill="none" stroke="black" d="M129.37,-180.23C132.29,-217.01 139.16,-303.5 142.74,-348.57"/>
<polygon fill="black" stroke="black" points="139.24,-348.65 143.52,-358.34 146.21,-348.09 139.24,-348.65"/>
</g>
<!-- H -->
<g id="node10" class="node">
<title>H</title>
<ellipse fill="none" stroke="black" cx="200" cy="-90" rx="27" ry="18"/>
<text text-anchor="middle" x="200" y="-84.95" font-family="Times,serif" font-size="14.00">H</text>
</g>
<!-- J&#45;&gt;H -->
<g id="edge8" class="edge">
<title>J&#45;&gt;H</title>
<path fill="none" stroke="black" d="M142.92,-146.5C152.77,-136.92 165.86,-124.19 177.03,-113.34"/>
<polygon fill="black" stroke="black" points="179.29,-116.02 184.02,-106.54 174.41,-111 179.29,-116.02"/>
</g>
<!-- I -->
<g id="node11" class="node">
<title>I</title>
<ellipse fill="none" stroke="black" cx="128" cy="-90" rx="27" ry="18"/>
<text text-anchor="middle" x="128" y="-84.95" font-family="Times,serif" font-size="14.00">I</text>
</g>
<!-- J&#45;&gt;I -->
<g id="edge9" class="edge">
<title>J&#45;&gt;I</title>
<path fill="none" stroke="black" d="M122.12,-144.05C121.33,-136.57 121.08,-127.58 121.37,-119.14"/>
<polygon fill="black" stroke="black" points="124.85,-119.51 122.04,-109.3 117.87,-119.04 124.85,-119.51"/>
</g>
<!-- L -->
<g id="node12" class="node">
<title>L</title>
<ellipse fill="none" stroke="black" cx="255" cy="-18" rx="27" ry="18"/>
<text text-anchor="middle" x="255" y="-12.95" font-family="Times,serif" font-size="14.00">L</text>
</g>
<!-- J&#45;&gt;L -->
<g id="edge16" class="edge">
<title>J&#45;&gt;L</title>
<path fill="none" stroke="black" d="M153.5,-155.35C178.4,-148.47 215.45,-134.35 236,-108 249.38,-90.85 253.86,-66.42 255.15,-47.48"/>
<polygon fill="black" stroke="black" points="258.64,-47.89 255.53,-37.76 251.64,-47.61 258.64,-47.89"/>
</g>
<!-- K -->
<g id="node9" class="node">
<title>K</title>
<ellipse fill="none" stroke="black" cx="183" cy="-234" rx="27" ry="18"/>
<text text-anchor="middle" x="183" y="-228.95" font-family="Times,serif" font-size="14.00">K</text>
</g>
<!-- D&#45;&gt;K -->
<g id="edge13" class="edge">
<title>D&#45;&gt;K</title>
<path fill="none" stroke="black" d="M183,-287.7C183,-280.41 183,-271.73 183,-263.54"/>
<polygon fill="black" stroke="black" points="186.5,-263.62 183,-253.62 179.5,-263.62 186.5,-263.62"/>
</g>
<!-- G -->
<g id="node7" class="node">
<title>G</title>
<ellipse fill="none" stroke="black" cx="238" cy="-162" rx="27" ry="18"/>
<text text-anchor="middle" x="238" y="-156.95" font-family="Times,serif" font-size="14.00">G</text>
</g>
<!-- G&#45;&gt;D -->
<g id="edge5" class="edge">
<title>G&#45;&gt;D</title>
<path fill="none" stroke="black" d="M236.3,-180.33C234.05,-198.71 229.11,-228.31 219,-252 214.75,-261.96 208.52,-272.01 202.44,-280.64"/>
<polygon fill="black" stroke="black" points="199.77,-278.36 196.65,-288.48 205.4,-282.52 199.77,-278.36"/>
</g>
<!-- E -->
<g id="node8" class="node">
<title>E</title>
<ellipse fill="none" stroke="black" cx="293" cy="-234" rx="27" ry="18"/>
<text text-anchor="middle" x="293" y="-228.95" font-family="Times,serif" font-size="14.00">E</text>
</g>
<!-- E&#45;&gt;G -->
<g id="edge6" class="edge">
<title>E&#45;&gt;G</title>
<path fill="none" stroke="black" d="M280.79,-217.46C273.89,-208.67 265.09,-197.48 257.27,-187.53"/>
<polygon fill="black" stroke="black" points="260.04,-185.38 251.11,-179.68 254.53,-189.71 260.04,-185.38"/>
</g>
<!-- E&#45;&gt;L -->
<g id="edge14" class="edge">
<title>E&#45;&gt;L</title>
<path fill="none" stroke="black" d="M289.95,-215.85C283.44,-179.14 268.08,-92.66 260.07,-47.53"/>
<polygon fill="black" stroke="black" points="263.52,-46.96 258.32,-37.72 256.63,-48.18 263.52,-46.96"/>
</g>
<!-- K&#45;&gt;J -->
<g id="edge12" class="edge">
<title>K&#45;&gt;J</title>
<path fill="none" stroke="black" d="M170.79,-217.46C163.89,-208.67 155.09,-197.48 147.27,-187.53"/>
<polygon fill="black" stroke="black" points="150.04,-185.38 141.11,-179.68 144.53,-189.71 150.04,-185.38"/>
</g>
<!-- K&#45;&gt;G -->
<g id="edge7" class="edge">
<title>K&#45;&gt;G</title>
<path fill="none" stroke="black" d="M195.21,-217.46C202.11,-208.67 210.91,-197.48 218.73,-187.53"/>
<polygon fill="black" stroke="black" points="221.47,-189.71 224.89,-179.68 215.96,-185.38 221.47,-189.71"/>
</g>
<!-- H&#45;&gt;L -->
<g id="edge15" class="edge">
<title>H&#45;&gt;L</title>
<path fill="none" stroke="black" d="M212.21,-73.46C219.11,-64.67 227.91,-53.48 235.73,-43.53"/>
<polygon fill="black" stroke="black" points="238.47,-45.71 241.89,-35.68 232.96,-41.38 238.47,-45.71"/>
</g>
<!-- I&#45;&gt;J -->
<g id="edge11" class="edge">
<title>I&#45;&gt;J</title>
<path fill="none" stroke="black" d="M133.86,-107.79C134.66,-115.25 134.92,-124.24 134.64,-132.69"/>
<polygon fill="black" stroke="black" points="131.16,-132.33 133.98,-142.54 138.14,-132.8 131.16,-132.33"/>
</g>
</g>
</svg>
