<?xml version="1.0" encoding="UTF-8" standalone="no"?>
<!DOCTYPE svg PUBLIC "-//W3C//DTD SVG 1.1//EN"
 "http://www.w3.org/Graphics/SVG/1.1/DTD/svg11.dtd">
<!-- Generated by graphviz version 11.0.0 (0)
 -->
<!-- Title: Fifth Pages: 1 -->
<svg width="178pt" height="692pt"
 viewBox="0.00 0.00 178.47 692.00" xmlns="http://www.w3.org/2000/svg" xmlns:xlink="http://www.w3.org/1999/xlink">
<g id="graph0" class="graph" transform="scale(1 1) rotate(0) translate(4 688)">
<title>Fifth</title>
<polygon fill="white" stroke="none" points="-4,4 -4,-688 174.47,-688 174.47,4 -4,4"/>
<!-- A -->
<g id="node1" class="node">
<title>A</title>
<ellipse fill="none" stroke="black" cx="49.31" cy="-306" rx="27" ry="18"/>
<text text-anchor="middle" x="49.31" y="-300.95" font-family="Times,serif" font-size="14.00">A</text>
</g>
<!-- C -->
<g id="node2" class="node">
<title>C</title>
<ellipse fill="none" stroke="black" cx="77.31" cy="-18" rx="27" ry="18"/>
<text text-anchor="middle" x="77.31" y="-12.95" font-family="Times,serif" font-size="14.00">C</text>
</g>
<!-- A&#45;&gt;C -->
<g id="edge1" class="edge">
<title>A&#45;&gt;C</title>
<path fill="none" stroke="black" d="M32.75,-291.64C22.1,-281.92 9.2,-267.75 3.31,-252 -2.28,-237.01 1.25,-231.87 3.31,-216 11.83,-150.36 13.88,-132.24 41.31,-72 45.8,-62.14 52.08,-52.12 58.14,-43.48"/>
<polygon fill="black" stroke="black" points="60.82,-45.76 63.89,-35.62 55.17,-41.62 60.82,-45.76"/>
</g>
<!-- J -->
<g id="node3" class="node">
<title>J</title>
<ellipse fill="none" stroke="black" cx="39.31" cy="-234" rx="27" ry="18"/>
<text text-anchor="middle" x="39.31" y="-228.95" font-family="Times,serif" font-size="14.00">J</text>
</g>
<!-- A&#45;&gt;J -->
<g id="edge2" class="edge">
<title>A&#45;&gt;J</title>
<path fill="none" stroke="black" d="M46.84,-287.7C45.79,-280.32 44.53,-271.52 43.35,-263.25"/>
<polygon fill="black" stroke="black" points="46.85,-263.01 41.97,-253.6 39.92,-264 46.85,-263.01"/>
</g>
<!-- F -->
<g id="node9" class="node">
<title>F</title>
<ellipse fill="none" stroke="black" cx="58.31" cy="-162" rx="27" ry="18"/>
<text text-anchor="middle" x="58.31" y="-156.95" font-family="Times,serif" font-size="14.00">F</text>
</g>
<!-- J&#45;&gt;F -->
<g id="edge16" class="edge">
<title>J&#45;&gt;F</title>
<path fill="none" stroke="black" d="M38.09,-215.7C39.4,-207.93 41.72,-198.58 44.42,-189.93"/>
<polygon fill="black" stroke="black" points="47.69,-191.17 47.65,-180.58 41.07,-188.88 47.69,-191.17"/>
</g>
<!-- B -->
<g id="node4" class="node">
<title>B</title>
<ellipse fill="none" stroke="black" cx="115.31" cy="-450" rx="27" ry="18"/>
<text text-anchor="middle" x="115.31" y="-444.95" font-family="Times,serif" font-size="14.00">B</text>
</g>
<!-- G -->
<g id="node5" class="node">
<title>G</title>
<ellipse fill="none" stroke="black" cx="60.31" cy="-378" rx="27" ry="18"/>
<text text-anchor="middle" x="60.31" y="-372.95" font-family="Times,serif" font-size="14.00">G</text>
</g>
<!-- B&#45;&gt;G -->
<g id="edge3" class="edge">
<title>B&#45;&gt;G</title>
<path fill="none" stroke="black" d="M103.11,-433.46C96.2,-424.67 87.41,-413.48 79.59,-403.53"/>
<polygon fill="black" stroke="black" points="82.35,-401.38 73.42,-395.68 76.85,-405.71 82.35,-401.38"/>
</g>
<!-- G&#45;&gt;A -->
<g id="edge10" class="edge">
<title>G&#45;&gt;A</title>
<path fill="none" stroke="black" d="M57.59,-359.7C56.44,-352.32 55.05,-343.52 53.75,-335.25"/>
<polygon fill="black" stroke="black" points="57.25,-334.93 52.24,-325.6 50.33,-336.02 57.25,-334.93"/>
</g>
<!-- I -->
<g id="node8" class="node">
<title>I</title>
<ellipse fill="none" stroke="black" cx="96.31" cy="-522" rx="27" ry="18"/>
<text text-anchor="middle" x="96.31" y="-516.95" font-family="Times,serif" font-size="14.00">I</text>
</g>
<!-- G&#45;&gt;I -->
<g id="edge12" class="edge">
<title>G&#45;&gt;I</title>
<path fill="none" stroke="black" d="M63.45,-396.18C66.87,-414.2 72.72,-443.27 79.31,-468 81.51,-476.25 84.22,-485.12 86.82,-493.2"/>
<polygon fill="black" stroke="black" points="83.43,-494.1 89.89,-502.51 90.08,-491.91 83.43,-494.1"/>
</g>
<!-- H -->
<g id="node10" class="node">
<title>H</title>
<ellipse fill="none" stroke="black" cx="77.31" cy="-90" rx="27" ry="18"/>
<text text-anchor="middle" x="77.31" y="-84.95" font-family="Times,serif" font-size="14.00">H</text>
</g>
<!-- G&#45;&gt;H -->
<g id="edge11" class="edge">
<title>G&#45;&gt;H</title>
<path fill="none" stroke="black" d="M69.87,-360.9C75.43,-350.69 81.97,-337.01 85.31,-324 105.25,-246.42 106.69,-223.14 94.31,-144 92.99,-135.56 90.56,-126.64 87.94,-118.56"/>
<polygon fill="black" stroke="black" points="91.3,-117.58 84.7,-109.29 84.69,-119.88 91.3,-117.58"/>
</g>
<!-- D -->
<g id="node6" class="node">
<title>D</title>
<ellipse fill="none" stroke="black" cx="49.31" cy="-666" rx="27" ry="18"/>
<text text-anchor="middle" x="49.31" y="-660.95" font-family="Times,serif" font-size="14.00">D</text>
</g>
<!-- E -->
<g id="node7" class="node">
<title>E</title>
<ellipse fill="none" stroke="black" cx="49.31" cy="-594" rx="27" ry="18"/>
<text text-anchor="middle" x="49.31" y="-588.95" font-family="Times,serif" font-size="14.00">E</text>
</g>
<!-- D&#45;&gt;E -->
<g id="edge4" class="edge">
<title>D&#45;&gt;E</title>
<path fill="none" stroke="black" d="M49.31,-647.7C49.31,-640.41 49.31,-631.73 49.31,-623.54"/>
<polygon fill="black" stroke="black" points="52.81,-623.62 49.31,-613.62 45.81,-623.62 52.81,-623.62"/>
</g>
<!-- E&#45;&gt;G -->
<g id="edge5" class="edge">
<title>E&#45;&gt;G</title>
<path fill="none" stroke="black" d="M50.19,-575.85C52.08,-539.14 56.53,-452.66 58.85,-407.53"/>
<polygon fill="black" stroke="black" points="62.33,-407.91 59.35,-397.74 55.34,-407.55 62.33,-407.91"/>
</g>
<!-- E&#45;&gt;I -->
<g id="edge6" class="edge">
<title>E&#45;&gt;I</title>
<path fill="none" stroke="black" d="M59.98,-577.12C65.69,-568.61 72.85,-557.94 79.31,-548.32"/>
<polygon fill="black" stroke="black" points="82.18,-550.33 84.85,-540.08 76.37,-546.43 82.18,-550.33"/>
</g>
<!-- I&#45;&gt;C -->
<g id="edge15" class="edge">
<title>I&#45;&gt;C</title>
<path fill="none" stroke="black" d="M114.4,-508.21C126.69,-498.56 142.3,-484.23 151.31,-468 170.96,-432.64 170.31,-419.45 170.31,-379 170.31,-379 170.31,-379 170.31,-161 170.31,-111.27 129.91,-65.41 102.36,-39.92"/>
<polygon fill="black" stroke="black" points="104.85,-37.45 95.07,-33.39 100.18,-42.66 104.85,-37.45"/>
</g>
<!-- I&#45;&gt;B -->
<g id="edge14" class="edge">
<title>I&#45;&gt;B</title>
<path fill="none" stroke="black" d="M100.91,-504.05C102.97,-496.49 105.44,-487.37 107.75,-478.85"/>
<polygon fill="black" stroke="black" points="111.12,-479.82 110.36,-469.25 104.36,-477.98 111.12,-479.82"/>
</g>
<!-- F&#45;&gt;A -->
<g id="edge7" class="edge">
<title>F&#45;&gt;A</title>
<path fill="none" stroke="black" d="M65.71,-179.81C72.63,-197.77 81.11,-227.02 75.31,-252 73.16,-261.27 69.15,-270.78 64.92,-279.14"/>
<polygon fill="black" stroke="black" points="61.97,-277.23 60.27,-287.69 68.12,-280.57 61.97,-277.23"/>
</g>
<!-- F&#45;&gt;J -->
<g id="edge9" class="edge">
<title>F&#45;&gt;J</title>
<path fill="none" stroke="black" d="M59.53,-180.29C58.22,-188.12 55.88,-197.56 53.15,-206.28"/>
<polygon fill="black" stroke="black" points="49.85,-205.09 49.88,-215.69 56.47,-207.39 49.85,-205.09"/>
</g>
<!-- F&#45;&gt;H -->
<g id="edge8" class="edge">
<title>F&#45;&gt;H</title>
<path fill="none" stroke="black" d="M62.91,-144.05C64.97,-136.49 67.44,-127.37 69.75,-118.85"/>
<polygon fill="black" stroke="black" points="73.12,-119.82 72.36,-109.25 66.36,-117.98 73.12,-119.82"/>
</g>
<!-- H&#45;&gt;C -->
<g id="edge13" class="edge">
<title>H&#45;&gt;C</title>
<path fill="none" stroke="black" d="M77.31,-71.7C77.31,-64.41 77.31,-55.73 77.31,-47.54"/>
<polygon fill="black" stroke="black" points="80.81,-47.62 77.31,-37.62 73.81,-47.62 80.81,-47.62"/>
</g>
</g>
</svg>
