<?xml version="1.0" encoding="UTF-8" standalone="no"?>
<!DOCTYPE svg PUBLIC "-//W3C//DTD SVG 1.1//EN"
 "http://www.w3.org/Graphics/SVG/1.1/DTD/svg11.dtd">
<!-- Generated by graphviz version 11.0.0 (0)
 -->
<!-- Title: Fifth Pages: 1 -->
<svg width="271pt" height="404pt"
 viewBox="0.00 0.00 271.00 404.00" xmlns="http://www.w3.org/2000/svg" xmlns:xlink="http://www.w3.org/1999/xlink">
<g id="graph0" class="graph" transform="scale(1 1) rotate(0) translate(4 400)">
<title>Fifth</title>
<polygon fill="white" stroke="none" points="-4,4 -4,-400 267,-400 267,4 -4,4"/>
<!-- I -->
<g id="node1" class="node">
<title>I</title>
<ellipse fill="none" stroke="black" cx="173" cy="-306" rx="27" ry="18"/>
<text text-anchor="middle" x="173" y="-300.95" font-family="Times,serif" font-size="14.00">I</text>
</g>
<!-- B -->
<g id="node2" class="node">
<title>B</title>
<ellipse fill="none" stroke="black" cx="46" cy="-162" rx="27" ry="18"/>
<text text-anchor="middle" x="46" y="-156.95" font-family="Times,serif" font-size="14.00">B</text>
</g>
<!-- I&#45;&gt;B -->
<g id="edge1" class="edge">
<title>I&#45;&gt;B</title>
<path fill="none" stroke="black" d="M147.5,-299.35C122.6,-292.47 85.55,-278.35 65,-252 51.62,-234.85 47.14,-210.42 45.85,-191.48"/>
<polygon fill="black" stroke="black" points="49.36,-191.61 45.47,-181.76 42.36,-191.89 49.36,-191.61"/>
</g>
<!-- H -->
<g id="node7" class="node">
<title>H</title>
<ellipse fill="none" stroke="black" cx="101" cy="-234" rx="27" ry="18"/>
<text text-anchor="middle" x="101" y="-228.95" font-family="Times,serif" font-size="14.00">H</text>
</g>
<!-- I&#45;&gt;H -->
<g id="edge7" class="edge">
<title>I&#45;&gt;H</title>
<path fill="none" stroke="black" d="M158.08,-290.5C148.23,-280.92 135.14,-268.19 123.97,-257.34"/>
<polygon fill="black" stroke="black" points="126.59,-255 116.98,-250.54 121.71,-260.02 126.59,-255"/>
</g>
<!-- F -->
<g id="node9" class="node">
<title>F</title>
<ellipse fill="none" stroke="black" cx="173" cy="-234" rx="27" ry="18"/>
<text text-anchor="middle" x="173" y="-228.95" font-family="Times,serif" font-size="14.00">F</text>
</g>
<!-- I&#45;&gt;F -->
<g id="edge6" class="edge">
<title>I&#45;&gt;F</title>
<path fill="none" stroke="black" d="M173,-287.7C173,-280.41 173,-271.73 173,-263.54"/>
<polygon fill="black" stroke="black" points="176.5,-263.62 173,-253.62 169.5,-263.62 176.5,-263.62"/>
</g>
<!-- J -->
<g id="node11" class="node">
<title>J</title>
<ellipse fill="none" stroke="black" cx="27" cy="-90" rx="27" ry="18"/>
<text text-anchor="middle" x="27" y="-84.95" font-family="Times,serif" font-size="14.00">J</text>
</g>
<!-- B&#45;&gt;J -->
<g id="edge11" class="edge">
<title>B&#45;&gt;J</title>
<path fill="none" stroke="black" d="M41.4,-144.05C39.35,-136.49 36.87,-127.37 34.56,-118.85"/>
<polygon fill="black" stroke="black" points="37.95,-117.98 31.95,-109.25 31.2,-119.82 37.95,-117.98"/>
</g>
<!-- L -->
<g id="node3" class="node">
<title>L</title>
<ellipse fill="none" stroke="black" cx="82" cy="-18" rx="27" ry="18"/>
<text text-anchor="middle" x="82" y="-12.95" font-family="Times,serif" font-size="14.00">L</text>
</g>
<!-- L&#45;&gt;B -->
<g id="edge2" class="edge">
<title>L&#45;&gt;B</title>
<path fill="none" stroke="black" d="M78.86,-36.18C75.45,-54.2 69.59,-83.27 63,-108 60.8,-116.25 58.1,-125.12 55.49,-133.2"/>
<polygon fill="black" stroke="black" points="52.23,-131.91 52.42,-142.51 58.88,-134.1 52.23,-131.91"/>
</g>
<!-- L&#45;&gt;J -->
<g id="edge12" class="edge">
<title>L&#45;&gt;J</title>
<path fill="none" stroke="black" d="M74.69,-35.76C68.43,-44.99 59.51,-56.55 50.99,-66.55"/>
<polygon fill="black" stroke="black" points="48.37,-64.23 44.37,-74.04 53.62,-68.86 48.37,-64.23"/>
</g>
<!-- K -->
<g id="node4" class="node">
<title>K</title>
<ellipse fill="none" stroke="black" cx="193" cy="-90" rx="27" ry="18"/>
<text text-anchor="middle" x="193" y="-84.95" font-family="Times,serif" font-size="14.00">K</text>
</g>
<!-- K&#45;&gt;I -->
<g id="edge10" class="edge">
<title>K&#45;&gt;I</title>
<path fill="none" stroke="black" d="M206.75,-105.93C214.96,-115.9 224.62,-129.75 229,-144 243.12,-189.93 243.49,-208.08 224,-252 218.49,-264.42 208.74,-275.67 199.24,-284.58"/>
<polygon fill="black" stroke="black" points="197.05,-281.85 191.85,-291.08 201.67,-287.11 197.05,-281.85"/>
</g>
<!-- K&#45;&gt;L -->
<g id="edge16" class="edge">
<title>K&#45;&gt;L</title>
<path fill="none" stroke="black" d="M173.92,-76.97C156.53,-66 130.59,-49.64 110.7,-37.1"/>
<polygon fill="black" stroke="black" points="112.81,-34.29 102.48,-31.92 109.08,-40.21 112.81,-34.29"/>
</g>
<!-- C -->
<g id="node5" class="node">
<title>C</title>
<ellipse fill="none" stroke="black" cx="164" cy="-18" rx="27" ry="18"/>
<text text-anchor="middle" x="164" y="-12.95" font-family="Times,serif" font-size="14.00">C</text>
</g>
<!-- K&#45;&gt;C -->
<g id="edge3" class="edge">
<title>K&#45;&gt;C</title>
<path fill="none" stroke="black" d="M186.13,-72.41C182.84,-64.48 178.82,-54.78 175.12,-45.84"/>
<polygon fill="black" stroke="black" points="178.46,-44.77 171.4,-36.87 172,-47.45 178.46,-44.77"/>
</g>
<!-- D -->
<g id="node6" class="node">
<title>D</title>
<ellipse fill="none" stroke="black" cx="236" cy="-18" rx="27" ry="18"/>
<text text-anchor="middle" x="236" y="-12.95" font-family="Times,serif" font-size="14.00">D</text>
</g>
<!-- K&#45;&gt;D -->
<g id="edge4" class="edge">
<title>K&#45;&gt;D</title>
<path fill="none" stroke="black" d="M202.97,-72.76C208.07,-64.46 214.41,-54.15 220.16,-44.79"/>
<polygon fill="black" stroke="black" points="223.04,-46.79 225.29,-36.44 217.07,-43.13 223.04,-46.79"/>
</g>
<!-- H&#45;&gt;L -->
<g id="edge14" class="edge">
<title>H&#45;&gt;L</title>
<path fill="none" stroke="black" d="M99.48,-215.85C96.22,-179.14 88.54,-92.66 84.53,-47.53"/>
<polygon fill="black" stroke="black" points="88.03,-47.39 83.66,-37.74 81.06,-48.01 88.03,-47.39"/>
</g>
<!-- E -->
<g id="node8" class="node">
<title>E</title>
<ellipse fill="none" stroke="black" cx="193" cy="-162" rx="27" ry="18"/>
<text text-anchor="middle" x="193" y="-156.95" font-family="Times,serif" font-size="14.00">E</text>
</g>
<!-- H&#45;&gt;E -->
<g id="edge5" class="edge">
<title>H&#45;&gt;E</title>
<path fill="none" stroke="black" d="M118.3,-219.83C131.93,-209.47 151.14,-194.85 166.66,-183.04"/>
<polygon fill="black" stroke="black" points="168.73,-185.86 174.57,-177.02 164.49,-180.29 168.73,-185.86"/>
</g>
<!-- E&#45;&gt;I -->
<g id="edge9" class="edge">
<title>E&#45;&gt;I</title>
<path fill="none" stroke="black" d="M200.65,-179.69C207.87,-197.79 216.57,-227.39 209,-252 205.82,-262.35 199.85,-272.49 193.67,-281.09"/>
<polygon fill="black" stroke="black" points="191.01,-278.81 187.67,-288.87 196.55,-283.09 191.01,-278.81"/>
</g>
<!-- E&#45;&gt;K -->
<g id="edge13" class="edge">
<title>E&#45;&gt;K</title>
<path fill="none" stroke="black" d="M193,-143.7C193,-136.41 193,-127.73 193,-119.54"/>
<polygon fill="black" stroke="black" points="196.5,-119.62 193,-109.62 189.5,-119.62 196.5,-119.62"/>
</g>
<!-- A -->
<g id="node10" class="node">
<title>A</title>
<ellipse fill="none" stroke="black" cx="173" cy="-378" rx="27" ry="18"/>
<text text-anchor="middle" x="173" y="-372.95" font-family="Times,serif" font-size="14.00">A</text>
</g>
<!-- A&#45;&gt;I -->
<g id="edge8" class="edge">
<title>A&#45;&gt;I</title>
<path fill="none" stroke="black" d="M173,-359.7C173,-352.41 173,-343.73 173,-335.54"/>
<polygon fill="black" stroke="black" points="176.5,-335.62 173,-325.62 169.5,-335.62 176.5,-335.62"/>
</g>
<!-- J&#45;&gt;L -->
<g id="edge15" class="edge">
<title>J&#45;&gt;L</title>
<path fill="none" stroke="black" d="M34.19,-72.41C40.54,-63.03 49.69,-51.18 58.37,-41.03"/>
<polygon fill="black" stroke="black" points="60.78,-43.59 64.79,-33.78 55.54,-38.95 60.78,-43.59"/>
</g>
</g>
</svg>
