<?xml version="1.0" encoding="UTF-8" standalone="no"?>
<!DOCTYPE svg PUBLIC "-//W3C//DTD SVG 1.1//EN"
 "http://www.w3.org/Graphics/SVG/1.1/DTD/svg11.dtd">
<!-- Generated by graphviz version 11.0.0 (0)
 -->
<!-- Title: Fifth Pages: 1 -->
<svg width="210pt" height="260pt"
 viewBox="0.00 0.00 210.00 260.00" xmlns="http://www.w3.org/2000/svg" xmlns:xlink="http://www.w3.org/1999/xlink">
<g id="graph0" class="graph" transform="scale(1 1) rotate(0) translate(4 256)">
<title>Fifth</title>
<polygon fill="white" stroke="none" points="-4,4 -4,-256 206,-256 206,4 -4,4"/>
<!-- g -->
<g id="node1" class="node">
<title>g</title>
<ellipse fill="none" stroke="black" cx="82" cy="-234" rx="27" ry="18"/>
<text text-anchor="middle" x="82" y="-228.95" font-family="Times,serif" font-size="14.00">g</text>
</g>
<!-- f -->
<g id="node2" class="node">
<title>f</title>
<ellipse fill="none" stroke="black" cx="27" cy="-162" rx="27" ry="18"/>
<text text-anchor="middle" x="27" y="-156.95" font-family="Times,serif" font-size="14.00">f</text>
</g>
<!-- g&#45;&gt;f -->
<g id="edge1" class="edge">
<title>g&#45;&gt;f</title>
<path fill="none" stroke="black" d="M69.79,-217.46C62.89,-208.67 54.09,-197.48 46.27,-187.53"/>
<polygon fill="black" stroke="black" points="49.04,-185.38 40.11,-179.68 43.53,-189.71 49.04,-185.38"/>
</g>
<!-- e -->
<g id="node3" class="node">
<title>e</title>
<ellipse fill="none" stroke="black" cx="56" cy="-90" rx="27" ry="18"/>
<text text-anchor="middle" x="56" y="-84.95" font-family="Times,serif" font-size="14.00">e</text>
</g>
<!-- g&#45;&gt;e -->
<g id="edge2" class="edge">
<title>g&#45;&gt;e</title>
<path fill="none" stroke="black" d="M78.86,-215.87C74.47,-191.88 66.44,-147.99 61.16,-119.16"/>
<polygon fill="black" stroke="black" points="64.66,-118.88 59.42,-109.68 57.78,-120.14 64.66,-118.88"/>
</g>
<!-- a -->
<g id="node4" class="node">
<title>a</title>
<ellipse fill="none" stroke="black" cx="120" cy="-18" rx="27" ry="18"/>
<text text-anchor="middle" x="120" y="-12.95" font-family="Times,serif" font-size="14.00">a</text>
</g>
<!-- g&#45;&gt;a -->
<g id="edge3" class="edge">
<title>g&#45;&gt;a</title>
<path fill="none" stroke="black" d="M85.05,-215.85C91.56,-179.14 106.92,-92.66 114.93,-47.53"/>
<polygon fill="black" stroke="black" points="118.37,-48.18 116.68,-37.72 111.48,-46.96 118.37,-48.18"/>
</g>
<!-- f&#45;&gt;e -->
<g id="edge4" class="edge">
<title>f&#45;&gt;e</title>
<path fill="none" stroke="black" d="M33.87,-144.41C37.16,-136.48 41.18,-126.78 44.88,-117.84"/>
<polygon fill="black" stroke="black" points="48,-119.45 48.6,-108.87 41.54,-116.77 48,-119.45"/>
</g>
<!-- e&#45;&gt;a -->
<g id="edge5" class="edge">
<title>e&#45;&gt;a</title>
<path fill="none" stroke="black" d="M69.57,-74.15C78.06,-64.87 89.17,-52.73 98.8,-42.19"/>
<polygon fill="black" stroke="black" points="101.26,-44.68 105.43,-34.94 96.09,-39.96 101.26,-44.68"/>
</g>
<!-- d -->
<g id="node5" class="node">
<title>d</title>
<ellipse fill="none" stroke="black" cx="48" cy="-18" rx="27" ry="18"/>
<text text-anchor="middle" x="48" y="-12.95" font-family="Times,serif" font-size="14.00">d</text>
</g>
<!-- e&#45;&gt;d -->
<g id="edge6" class="edge">
<title>e&#45;&gt;d</title>
<path fill="none" stroke="black" d="M54.02,-71.7C53.19,-64.41 52.2,-55.73 51.26,-47.54"/>
<polygon fill="black" stroke="black" points="54.74,-47.15 50.13,-37.61 47.78,-47.94 54.74,-47.15"/>
</g>
<!-- c -->
<g id="node6" class="node">
<title>c</title>
<ellipse fill="none" stroke="black" cx="175" cy="-234" rx="27" ry="18"/>
<text text-anchor="middle" x="175" y="-228.95" font-family="Times,serif" font-size="14.00">c</text>
</g>
<!-- b -->
<g id="node7" class="node">
<title>b</title>
<ellipse fill="none" stroke="black" cx="175" cy="-162" rx="27" ry="18"/>
<text text-anchor="middle" x="175" y="-156.95" font-family="Times,serif" font-size="14.00">b</text>
</g>
<!-- c&#45;&gt;b -->
<g id="edge7" class="edge">
<title>c&#45;&gt;b</title>
<path fill="none" stroke="black" d="M175,-215.7C175,-208.41 175,-199.73 175,-191.54"/>
<polygon fill="black" stroke="black" points="178.5,-191.62 175,-181.62 171.5,-191.62 178.5,-191.62"/>
</g>
</g>
</svg>
