<?xml version="1.0" encoding="UTF-8" standalone="no"?>
<!DOCTYPE svg PUBLIC "-//W3C//DTD SVG 1.1//EN"
 "http://www.w3.org/Graphics/SVG/1.1/DTD/svg11.dtd">
<!-- Generated by graphviz version 11.0.0 (0)
 -->
<!-- Title: Fifth Pages: 1 -->
<svg width="406pt" height="476pt"
 viewBox="0.00 0.00 405.70 476.00" xmlns="http://www.w3.org/2000/svg" xmlns:xlink="http://www.w3.org/1999/xlink">
<g id="graph0" class="graph" transform="scale(1 1) rotate(0) translate(4 472)">
<title>Fifth</title>
<polygon fill="white" stroke="none" points="-4,4 -4,-472 401.7,-472 401.7,4 -4,4"/>
<!-- F (1;18) -->
<g id="node1" class="node">
<title>F (1;18)</title>
<ellipse fill="none" stroke="black" cx="133.46" cy="-450" rx="41.12" ry="18"/>
<text text-anchor="middle" x="133.46" y="-444.95" font-family="Times,serif" font-size="14.00">F (1;18)</text>
</g>
<!-- B (2;17) -->
<g id="node2" class="node">
<title>B (2;17)</title>
<ellipse fill="none" stroke="black" cx="133.46" cy="-378" rx="42.14" ry="18"/>
<text text-anchor="middle" x="133.46" y="-372.95" font-family="Times,serif" font-size="14.00">B (2;17)</text>
</g>
<!-- F (1;18)&#45;&gt;B (2;17) -->
<g id="edge1" class="edge">
<title>F (1;18)&#45;&gt;B (2;17)</title>
<path fill="none" stroke="black" d="M133.46,-431.7C133.46,-424.41 133.46,-415.73 133.46,-407.54"/>
<polygon fill="black" stroke="black" points="136.96,-407.62 133.46,-397.62 129.96,-407.62 136.96,-407.62"/>
</g>
<!-- D (3;16) -->
<g id="node3" class="node">
<title>D (3;16)</title>
<ellipse fill="none" stroke="black" cx="133.46" cy="-306" rx="42.65" ry="18"/>
<text text-anchor="middle" x="133.46" y="-300.95" font-family="Times,serif" font-size="14.00">D (3;16)</text>
</g>
<!-- B (2;17)&#45;&gt;D (3;16) -->
<g id="edge2" class="edge">
<title>B (2;17)&#45;&gt;D (3;16)</title>
<path fill="none" stroke="black" d="M133.46,-359.7C133.46,-352.41 133.46,-343.73 133.46,-335.54"/>
<polygon fill="black" stroke="black" points="136.96,-335.62 133.46,-325.62 129.96,-335.62 136.96,-335.62"/>
</g>
<!-- K (4;15) -->
<g id="node4" class="node">
<title>K (4;15)</title>
<ellipse fill="none" stroke="black" cx="133.46" cy="-234" rx="42.65" ry="18"/>
<text text-anchor="middle" x="133.46" y="-228.95" font-family="Times,serif" font-size="14.00">K (4;15)</text>
</g>
<!-- D (3;16)&#45;&gt;K (4;15) -->
<g id="edge3" class="edge">
<title>D (3;16)&#45;&gt;K (4;15)</title>
<path fill="none" stroke="black" d="M133.46,-287.7C133.46,-280.41 133.46,-271.73 133.46,-263.54"/>
<polygon fill="black" stroke="black" points="136.96,-263.62 133.46,-253.62 129.96,-263.62 136.96,-263.62"/>
</g>
<!-- J (5;12) -->
<g id="node5" class="node">
<title>J (5;12)</title>
<ellipse fill="none" stroke="black" cx="81.46" cy="-162" rx="39.58" ry="18"/>
<text text-anchor="middle" x="81.46" y="-156.95" font-family="Times,serif" font-size="14.00">J (5;12)</text>
</g>
<!-- K (4;15)&#45;&gt;J (5;12) -->
<g id="edge4" class="edge">
<title>K (4;15)&#45;&gt;J (5;12)</title>
<path fill="none" stroke="black" d="M121.14,-216.41C114.99,-208.13 107.41,-197.92 100.52,-188.66"/>
<polygon fill="black" stroke="black" points="103.37,-186.63 94.6,-180.68 97.75,-190.8 103.37,-186.63"/>
</g>
<!-- G (13;14) -->
<g id="node6" class="node">
<title>G (13;14)</title>
<ellipse fill="none" stroke="black" cx="186.46" cy="-162" rx="47.26" ry="18"/>
<text text-anchor="middle" x="186.46" y="-156.95" font-family="Times,serif" font-size="14.00">G (13;14)</text>
</g>
<!-- K (4;15)&#45;&gt;G (13;14) -->
<g id="edge5" class="edge">
<title>K (4;15)&#45;&gt;G (13;14)</title>
<path fill="none" stroke="black" d="M146.02,-216.41C152.36,-208.04 160.18,-197.71 167.25,-188.37"/>
<polygon fill="black" stroke="black" points="169.83,-190.76 173.08,-180.68 164.25,-186.54 169.83,-190.76"/>
</g>
<!-- I (6;7) -->
<g id="node7" class="node">
<title>I (6;7)</title>
<ellipse fill="none" stroke="black" cx="34.46" cy="-90" rx="34.46" ry="18"/>
<text text-anchor="middle" x="34.46" y="-84.95" font-family="Times,serif" font-size="14.00">I (6;7)</text>
</g>
<!-- J (5;12)&#45;&gt;I (6;7) -->
<g id="edge6" class="edge">
<title>J (5;12)&#45;&gt;I (6;7)</title>
<path fill="none" stroke="black" d="M70.32,-144.41C64.82,-136.22 58.06,-126.14 51.89,-116.95"/>
<polygon fill="black" stroke="black" points="54.84,-115.08 46.36,-108.73 49.03,-118.98 54.84,-115.08"/>
</g>
<!-- H (8;11) -->
<g id="node8" class="node">
<title>H (8;11)</title>
<ellipse fill="none" stroke="black" cx="129.46" cy="-90" rx="42.65" ry="18"/>
<text text-anchor="middle" x="129.46" y="-84.95" font-family="Times,serif" font-size="14.00">H (8;11)</text>
</g>
<!-- J (5;12)&#45;&gt;H (8;11) -->
<g id="edge7" class="edge">
<title>J (5;12)&#45;&gt;H (8;11)</title>
<path fill="none" stroke="black" d="M92.84,-144.41C98.46,-136.22 105.37,-126.14 111.66,-116.95"/>
<polygon fill="black" stroke="black" points="114.54,-118.94 117.31,-108.72 108.77,-114.99 114.54,-118.94"/>
</g>
<!-- L (9;10) -->
<g id="node9" class="node">
<title>L (9;10)</title>
<ellipse fill="none" stroke="black" cx="129.46" cy="-18" rx="41.63" ry="18"/>
<text text-anchor="middle" x="129.46" y="-12.95" font-family="Times,serif" font-size="14.00">L (9;10)</text>
</g>
<!-- H (8;11)&#45;&gt;L (9;10) -->
<g id="edge8" class="edge">
<title>H (8;11)&#45;&gt;L (9;10)</title>
<path fill="none" stroke="black" d="M129.46,-71.7C129.46,-64.41 129.46,-55.73 129.46,-47.54"/>
<polygon fill="black" stroke="black" points="132.96,-47.62 129.46,-37.62 125.96,-47.62 132.96,-47.62"/>
</g>
<!-- C (19;22) -->
<g id="node10" class="node">
<title>C (19;22)</title>
<ellipse fill="none" stroke="black" cx="240.46" cy="-450" rx="46.75" ry="18"/>
<text text-anchor="middle" x="240.46" y="-444.95" font-family="Times,serif" font-size="14.00">C (19;22)</text>
</g>
<!-- A (20;21) -->
<g id="node11" class="node">
<title>A (20;21)</title>
<ellipse fill="none" stroke="black" cx="240.46" cy="-378" rx="46.75" ry="18"/>
<text text-anchor="middle" x="240.46" y="-372.95" font-family="Times,serif" font-size="14.00">A (20;21)</text>
</g>
<!-- C (19;22)&#45;&gt;A (20;21) -->
<g id="edge9" class="edge">
<title>C (19;22)&#45;&gt;A (20;21)</title>
<path fill="none" stroke="black" d="M240.46,-431.7C240.46,-424.41 240.46,-415.73 240.46,-407.54"/>
<polygon fill="black" stroke="black" points="243.96,-407.62 240.46,-397.62 236.96,-407.62 243.96,-407.62"/>
</g>
<!-- E (23;24) -->
<g id="node12" class="node">
<title>E (23;24)</title>
<ellipse fill="none" stroke="black" cx="351.46" cy="-450" rx="46.23" ry="18"/>
<text text-anchor="middle" x="351.46" y="-444.95" font-family="Times,serif" font-size="14.00">E (23;24)</text>
</g>
</g>
</svg>
