<?xml version="1.0" encoding="UTF-8" standalone="no"?>
<!DOCTYPE svg PUBLIC "-//W3C//DTD SVG 1.1//EN"
 "http://www.w3.org/Graphics/SVG/1.1/DTD/svg11.dtd">
<!-- Generated by graphviz version 11.0.0 (0)
 -->
<!-- Title: Fifth Pages: 1 -->
<svg width="342pt" height="332pt"
 viewBox="0.00 0.00 341.53 332.00" xmlns="http://www.w3.org/2000/svg" xmlns:xlink="http://www.w3.org/1999/xlink">
<g id="graph0" class="graph" transform="scale(1 1) rotate(0) translate(4 328)">
<title>Fifth</title>
<polygon fill="white" stroke="none" points="-4,4 -4,-328 337.53,-328 337.53,4 -4,4"/>
<!-- B -->
<g id="node1" class="node">
<title>B</title>
<ellipse fill="none" stroke="black" cx="39.53" cy="-306" rx="27" ry="18"/>
<text text-anchor="middle" x="39.53" y="-300.95" font-family="Times,serif" font-size="14.00">B</text>
</g>
<!-- I -->
<g id="node2" class="node">
<title>I</title>
<ellipse fill="none" stroke="black" cx="255.53" cy="-234" rx="27" ry="18"/>
<text text-anchor="middle" x="255.53" y="-228.95" font-family="Times,serif" font-size="14.00">I</text>
</g>
<!-- B&#45;&gt;I -->
<g id="edge1" class="edge">
<title>B&#45;&gt;I</title>
<path fill="none" stroke="black" d="M64.68,-298.91C99.85,-290.1 165.49,-272.57 219.53,-252 221.06,-251.42 222.62,-250.79 224.19,-250.15"/>
<polygon fill="black" stroke="black" points="225.32,-253.47 233.06,-246.23 222.5,-247.07 225.32,-253.47"/>
</g>
<!-- L -->
<g id="node3" class="node">
<title>L</title>
<ellipse fill="none" stroke="black" cx="39.53" cy="-234" rx="27" ry="18"/>
<text text-anchor="middle" x="39.53" y="-228.95" font-family="Times,serif" font-size="14.00">L</text>
</g>
<!-- B&#45;&gt;L -->
<g id="edge2" class="edge">
<title>B&#45;&gt;L</title>
<path fill="none" stroke="black" d="M39.53,-287.7C39.53,-280.41 39.53,-271.73 39.53,-263.54"/>
<polygon fill="black" stroke="black" points="43.03,-263.62 39.53,-253.62 36.03,-263.62 43.03,-263.62"/>
</g>
<!-- K -->
<g id="node5" class="node">
<title>K</title>
<ellipse fill="none" stroke="black" cx="158.53" cy="-162" rx="27" ry="18"/>
<text text-anchor="middle" x="158.53" y="-156.95" font-family="Times,serif" font-size="14.00">K</text>
</g>
<!-- I&#45;&gt;K -->
<g id="edge10" class="edge">
<title>I&#45;&gt;K</title>
<path fill="none" stroke="black" d="M237.74,-220.16C223.11,-209.6 202.14,-194.47 185.46,-182.43"/>
<polygon fill="black" stroke="black" points="187.59,-179.66 177.43,-176.64 183.49,-185.33 187.59,-179.66"/>
</g>
<!-- E -->
<g id="node7" class="node">
<title>E</title>
<ellipse fill="none" stroke="black" cx="177.53" cy="-90" rx="27" ry="18"/>
<text text-anchor="middle" x="177.53" y="-84.95" font-family="Times,serif" font-size="14.00">E</text>
</g>
<!-- I&#45;&gt;E -->
<g id="edge9" class="edge">
<title>I&#45;&gt;E</title>
<path fill="none" stroke="black" d="M246.58,-216.71C233.18,-192.32 207.77,-146.05 191.79,-116.97"/>
<polygon fill="black" stroke="black" points="194.98,-115.51 187.1,-108.43 188.85,-118.88 194.98,-115.51"/>
</g>
<!-- A -->
<g id="node10" class="node">
<title>A</title>
<ellipse fill="none" stroke="black" cx="306.53" cy="-162" rx="27" ry="18"/>
<text text-anchor="middle" x="306.53" y="-156.95" font-family="Times,serif" font-size="14.00">A</text>
</g>
<!-- I&#45;&gt;A -->
<g id="edge8" class="edge">
<title>I&#45;&gt;A</title>
<path fill="none" stroke="black" d="M266.85,-217.46C273.25,-208.67 281.41,-197.48 288.65,-187.53"/>
<polygon fill="black" stroke="black" points="291.29,-189.86 294.35,-179.72 285.63,-185.74 291.29,-189.86"/>
</g>
<!-- L&#45;&gt;K -->
<g id="edge16" class="edge">
<title>L&#45;&gt;K</title>
<path fill="none" stroke="black" d="M59.45,-221.28C78.52,-210.06 107.54,-192.99 129.24,-180.23"/>
<polygon fill="black" stroke="black" points="130.79,-183.38 137.64,-175.29 127.24,-177.34 130.79,-183.38"/>
</g>
<!-- H -->
<g id="node8" class="node">
<title>H</title>
<ellipse fill="none" stroke="black" cx="177.53" cy="-18" rx="27" ry="18"/>
<text text-anchor="middle" x="177.53" y="-12.95" font-family="Times,serif" font-size="14.00">H</text>
</g>
<!-- L&#45;&gt;H -->
<g id="edge14" class="edge">
<title>L&#45;&gt;H</title>
<path fill="none" stroke="black" d="M50.44,-217.36C57.68,-206.88 67.33,-192.71 75.53,-180 106.01,-132.72 111.05,-119.28 141.53,-72 147.48,-62.76 154.2,-52.76 160.21,-43.96"/>
<polygon fill="black" stroke="black" points="162.98,-46.11 165.76,-35.89 157.21,-42.15 162.98,-46.11"/>
</g>
<!-- J -->
<g id="node11" class="node">
<title>J</title>
<ellipse fill="none" stroke="black" cx="39.53" cy="-162" rx="27" ry="18"/>
<text text-anchor="middle" x="39.53" y="-156.95" font-family="Times,serif" font-size="14.00">J</text>
</g>
<!-- L&#45;&gt;J -->
<g id="edge15" class="edge">
<title>L&#45;&gt;J</title>
<path fill="none" stroke="black" d="M33.65,-216.05C32.86,-208.57 32.6,-199.58 32.89,-191.14"/>
<polygon fill="black" stroke="black" points="36.38,-191.51 33.56,-181.3 29.39,-191.04 36.38,-191.51"/>
</g>
<!-- C -->
<g id="node4" class="node">
<title>C</title>
<ellipse fill="none" stroke="black" cx="111.53" cy="-234" rx="27" ry="18"/>
<text text-anchor="middle" x="111.53" y="-228.95" font-family="Times,serif" font-size="14.00">C</text>
</g>
<!-- C&#45;&gt;K -->
<g id="edge3" class="edge">
<title>C&#45;&gt;K</title>
<path fill="none" stroke="black" d="M122.19,-217.12C127.9,-208.61 135.07,-197.94 141.52,-188.32"/>
<polygon fill="black" stroke="black" points="144.39,-190.33 147.06,-180.08 138.58,-186.43 144.39,-190.33"/>
</g>
<!-- K&#45;&gt;E -->
<g id="edge13" class="edge">
<title>K&#45;&gt;E</title>
<path fill="none" stroke="black" d="M163.13,-144.05C165.18,-136.49 167.65,-127.37 169.97,-118.85"/>
<polygon fill="black" stroke="black" points="173.33,-119.82 172.57,-109.25 166.58,-117.98 173.33,-119.82"/>
</g>
<!-- D -->
<g id="node6" class="node">
<title>D</title>
<ellipse fill="none" stroke="black" cx="183.53" cy="-234" rx="27" ry="18"/>
<text text-anchor="middle" x="183.53" y="-228.95" font-family="Times,serif" font-size="14.00">D</text>
</g>
<!-- D&#45;&gt;K -->
<g id="edge4" class="edge">
<title>D&#45;&gt;K</title>
<path fill="none" stroke="black" d="M177.48,-216.05C174.74,-208.4 171.44,-199.16 168.37,-190.56"/>
<polygon fill="black" stroke="black" points="171.69,-189.45 165.03,-181.21 165.1,-191.81 171.69,-189.45"/>
</g>
<!-- E&#45;&gt;H -->
<g id="edge5" class="edge">
<title>E&#45;&gt;H</title>
<path fill="none" stroke="black" d="M177.53,-71.7C177.53,-64.41 177.53,-55.73 177.53,-47.54"/>
<polygon fill="black" stroke="black" points="181.03,-47.62 177.53,-37.62 174.03,-47.62 181.03,-47.62"/>
</g>
<!-- H&#45;&gt;I -->
<g id="edge7" class="edge">
<title>H&#45;&gt;I</title>
<path fill="none" stroke="black" d="M190.07,-34.39C197.79,-44.54 207.37,-58.43 213.53,-72 233.62,-116.28 245.45,-171.94 251.19,-204.87"/>
<polygon fill="black" stroke="black" points="247.69,-205.13 252.79,-214.41 254.59,-203.97 247.69,-205.13"/>
</g>
<!-- F -->
<g id="node9" class="node">
<title>F</title>
<ellipse fill="none" stroke="black" cx="255.53" cy="-306" rx="27" ry="18"/>
<text text-anchor="middle" x="255.53" y="-300.95" font-family="Times,serif" font-size="14.00">F</text>
</g>
<!-- F&#45;&gt;I -->
<g id="edge6" class="edge">
<title>F&#45;&gt;I</title>
<path fill="none" stroke="black" d="M255.53,-287.7C255.53,-280.41 255.53,-271.73 255.53,-263.54"/>
<polygon fill="black" stroke="black" points="259.03,-263.62 255.53,-253.62 252.03,-263.62 259.03,-263.62"/>
</g>
<!-- J&#45;&gt;B -->
<g id="edge11" class="edge">
<title>J&#45;&gt;B</title>
<path fill="none" stroke="black" d="M25.78,-177.93C17.57,-187.9 7.91,-201.75 3.53,-216 -1.18,-231.29 -1.18,-236.71 3.53,-252 6.71,-262.35 12.68,-272.49 18.85,-281.09"/>
<polygon fill="black" stroke="black" points="15.97,-283.09 24.85,-288.87 21.52,-278.81 15.97,-283.09"/>
</g>
<!-- J&#45;&gt;L -->
<g id="edge12" class="edge">
<title>J&#45;&gt;L</title>
<path fill="none" stroke="black" d="M45.39,-179.79C46.19,-187.25 46.45,-196.24 46.17,-204.69"/>
<polygon fill="black" stroke="black" points="42.68,-204.33 45.51,-214.54 49.67,-204.8 42.68,-204.33"/>
</g>
</g>
</svg>
