<?xml version="1.0" encoding="UTF-8" standalone="no"?>
<!DOCTYPE svg PUBLIC "-//W3C//DTD SVG 1.1//EN"
 "http://www.w3.org/Graphics/SVG/1.1/DTD/svg11.dtd">
<!-- Generated by graphviz version 11.0.0 (0)
 -->
<!-- Title: Fifth Pages: 1 -->
<svg width="296pt" height="404pt"
 viewBox="0.00 0.00 295.74 404.00" xmlns="http://www.w3.org/2000/svg" xmlns:xlink="http://www.w3.org/1999/xlink">
<g id="graph0" class="graph" transform="scale(1 1) rotate(0) translate(4 400)">
<title>Fifth</title>
<polygon fill="white" stroke="none" points="-4,4 -4,-400 291.74,-400 291.74,4 -4,4"/>
<!-- A (1;22) -->
<g id="node1" class="node">
<title>A (1;22)</title>
<ellipse fill="none" stroke="black" cx="136.02" cy="-378" rx="42.14" ry="18"/>
<text text-anchor="middle" x="136.02" y="-372.95" font-family="Times,serif" font-size="14.00">A (1;22)</text>
</g>
<!-- I (2;21) -->
<g id="node2" class="node">
<title>I (2;21)</title>
<ellipse fill="none" stroke="black" cx="136.02" cy="-306" rx="39.07" ry="18"/>
<text text-anchor="middle" x="136.02" y="-300.95" font-family="Times,serif" font-size="14.00">I (2;21)</text>
</g>
<!-- A (1;22)&#45;&gt;I (2;21) -->
<g id="edge1" class="edge">
<title>A (1;22)&#45;&gt;I (2;21)</title>
<path fill="none" stroke="black" d="M136.02,-359.7C136.02,-352.41 136.02,-343.73 136.02,-335.54"/>
<polygon fill="black" stroke="black" points="139.52,-335.62 136.02,-325.62 132.52,-335.62 139.52,-335.62"/>
</g>
<!-- B (3;8) -->
<g id="node3" class="node">
<title>B (3;8)</title>
<ellipse fill="none" stroke="black" cx="38.02" cy="-234" rx="37.53" ry="18"/>
<text text-anchor="middle" x="38.02" y="-228.95" font-family="Times,serif" font-size="14.00">B (3;8)</text>
</g>
<!-- I (2;21)&#45;&gt;B (3;8) -->
<g id="edge2" class="edge">
<title>I (2;21)&#45;&gt;B (3;8)</title>
<path fill="none" stroke="black" d="M115.72,-290.5C101.79,-280.55 83.08,-267.19 67.52,-256.07"/>
<polygon fill="black" stroke="black" points="69.7,-253.33 59.53,-250.37 65.64,-259.03 69.7,-253.33"/>
</g>
<!-- H (9;18) -->
<g id="node4" class="node">
<title>H (9;18)</title>
<ellipse fill="none" stroke="black" cx="136.02" cy="-234" rx="42.65" ry="18"/>
<text text-anchor="middle" x="136.02" y="-228.95" font-family="Times,serif" font-size="14.00">H (9;18)</text>
</g>
<!-- I (2;21)&#45;&gt;H (9;18) -->
<g id="edge3" class="edge">
<title>I (2;21)&#45;&gt;H (9;18)</title>
<path fill="none" stroke="black" d="M136.02,-287.7C136.02,-280.41 136.02,-271.73 136.02,-263.54"/>
<polygon fill="black" stroke="black" points="139.52,-263.62 136.02,-253.62 132.52,-263.62 139.52,-263.62"/>
</g>
<!-- F (19;20) -->
<g id="node5" class="node">
<title>F (19;20)</title>
<ellipse fill="none" stroke="black" cx="242.02" cy="-234" rx="45.72" ry="18"/>
<text text-anchor="middle" x="242.02" y="-228.95" font-family="Times,serif" font-size="14.00">F (19;20)</text>
</g>
<!-- I (2;21)&#45;&gt;F (19;20) -->
<g id="edge4" class="edge">
<title>I (2;21)&#45;&gt;F (19;20)</title>
<path fill="none" stroke="black" d="M157.73,-290.67C172.71,-280.77 192.9,-267.44 209.77,-256.3"/>
<polygon fill="black" stroke="black" points="211.57,-259.31 217.98,-250.87 207.71,-253.47 211.57,-259.31"/>
</g>
<!-- J (4;7) -->
<g id="node6" class="node">
<title>J (4;7)</title>
<ellipse fill="none" stroke="black" cx="38.02" cy="-162" rx="34.97" ry="18"/>
<text text-anchor="middle" x="38.02" y="-156.95" font-family="Times,serif" font-size="14.00">J (4;7)</text>
</g>
<!-- B (3;8)&#45;&gt;J (4;7) -->
<g id="edge5" class="edge">
<title>B (3;8)&#45;&gt;J (4;7)</title>
<path fill="none" stroke="black" d="M38.02,-215.7C38.02,-208.41 38.02,-199.73 38.02,-191.54"/>
<polygon fill="black" stroke="black" points="41.52,-191.62 38.02,-181.62 34.52,-191.62 41.52,-191.62"/>
</g>
<!-- E (10;17) -->
<g id="node8" class="node">
<title>E (10;17)</title>
<ellipse fill="none" stroke="black" cx="138.02" cy="-162" rx="46.23" ry="18"/>
<text text-anchor="middle" x="138.02" y="-156.95" font-family="Times,serif" font-size="14.00">E (10;17)</text>
</g>
<!-- H (9;18)&#45;&gt;E (10;17) -->
<g id="edge7" class="edge">
<title>H (9;18)&#45;&gt;E (10;17)</title>
<path fill="none" stroke="black" d="M136.52,-215.7C136.72,-208.41 136.97,-199.73 137.21,-191.54"/>
<polygon fill="black" stroke="black" points="140.7,-191.71 137.49,-181.62 133.7,-191.51 140.7,-191.71"/>
</g>
<!-- L (5;6) -->
<g id="node7" class="node">
<title>L (5;6)</title>
<ellipse fill="none" stroke="black" cx="37.02" cy="-90" rx="37.02" ry="18"/>
<text text-anchor="middle" x="37.02" y="-84.95" font-family="Times,serif" font-size="14.00">L (5;6)</text>
</g>
<!-- J (4;7)&#45;&gt;L (5;6) -->
<g id="edge6" class="edge">
<title>J (4;7)&#45;&gt;L (5;6)</title>
<path fill="none" stroke="black" d="M37.77,-143.7C37.67,-136.41 37.55,-127.73 37.43,-119.54"/>
<polygon fill="black" stroke="black" points="40.93,-119.57 37.29,-109.62 33.93,-119.67 40.93,-119.57"/>
</g>
<!-- K (11;16) -->
<g id="node9" class="node">
<title>K (11;16)</title>
<ellipse fill="none" stroke="black" cx="139.02" cy="-90" rx="47.26" ry="18"/>
<text text-anchor="middle" x="139.02" y="-84.95" font-family="Times,serif" font-size="14.00">K (11;16)</text>
</g>
<!-- E (10;17)&#45;&gt;K (11;16) -->
<g id="edge8" class="edge">
<title>E (10;17)&#45;&gt;K (11;16)</title>
<path fill="none" stroke="black" d="M138.27,-143.7C138.37,-136.41 138.5,-127.73 138.61,-119.54"/>
<polygon fill="black" stroke="black" points="142.11,-119.67 138.75,-109.62 135.11,-119.57 142.11,-119.67"/>
</g>
<!-- C (12;13) -->
<g id="node10" class="node">
<title>C (12;13)</title>
<ellipse fill="none" stroke="black" cx="83.02" cy="-18" rx="46.75" ry="18"/>
<text text-anchor="middle" x="83.02" y="-12.95" font-family="Times,serif" font-size="14.00">C (12;13)</text>
</g>
<!-- K (11;16)&#45;&gt;C (12;13) -->
<g id="edge9" class="edge">
<title>K (11;16)&#45;&gt;C (12;13)</title>
<path fill="none" stroke="black" d="M125.75,-72.41C119.05,-64.04 110.79,-53.71 103.32,-44.37"/>
<polygon fill="black" stroke="black" points="106.12,-42.27 97.14,-36.65 100.66,-46.65 106.12,-42.27"/>
</g>
<!-- D (14;15) -->
<g id="node11" class="node">
<title>D (14;15)</title>
<ellipse fill="none" stroke="black" cx="195.02" cy="-18" rx="47.26" ry="18"/>
<text text-anchor="middle" x="195.02" y="-12.95" font-family="Times,serif" font-size="14.00">D (14;15)</text>
</g>
<!-- K (11;16)&#45;&gt;D (14;15) -->
<g id="edge10" class="edge">
<title>K (11;16)&#45;&gt;D (14;15)</title>
<path fill="none" stroke="black" d="M152.29,-72.41C158.99,-64.04 167.25,-53.71 174.72,-44.37"/>
<polygon fill="black" stroke="black" points="177.39,-46.65 180.9,-36.65 171.92,-42.27 177.39,-46.65"/>
</g>
</g>
</svg>
