<?xml version="1.0" encoding="UTF-8" standalone="no"?>
<!DOCTYPE svg PUBLIC "-//W3C//DTD SVG 1.1//EN"
 "http://www.w3.org/Graphics/SVG/1.1/DTD/svg11.dtd">
<!-- Generated by graphviz version 11.0.0 (0)
 -->
<!-- Title: Fifth Pages: 1 -->
<svg width="278pt" height="188pt"
 viewBox="0.00 0.00 278.00 188.00" xmlns="http://www.w3.org/2000/svg" xmlns:xlink="http://www.w3.org/1999/xlink">
<g id="graph0" class="graph" transform="scale(1 1) rotate(0) translate(4 184)">
<title>Fifth</title>
<polygon fill="white" stroke="none" points="-4,4 -4,-184 274,-184 274,4 -4,4"/>
<!-- b -->
<g id="node1" class="node">
<title>b</title>
<ellipse fill="none" stroke="black" cx="135" cy="-90" rx="27" ry="18"/>
<text text-anchor="middle" x="135" y="-84.95" font-family="Times,serif" font-size="14.00">b</text>
</g>
<!-- a -->
<g id="node2" class="node">
<title>a</title>
<ellipse fill="none" stroke="black" cx="135" cy="-18" rx="27" ry="18"/>
<text text-anchor="middle" x="135" y="-12.95" font-family="Times,serif" font-size="14.00">a</text>
</g>
<!-- b&#45;&gt;a -->
<g id="edge1" class="edge">
<title>b&#45;&gt;a</title>
<path fill="none" stroke="black" d="M135,-71.7C135,-64.41 135,-55.73 135,-47.54"/>
<polygon fill="black" stroke="black" points="138.5,-47.62 135,-37.62 131.5,-47.62 138.5,-47.62"/>
</g>
<!-- d -->
<g id="node3" class="node">
<title>d</title>
<ellipse fill="none" stroke="black" cx="27" cy="-162" rx="27" ry="18"/>
<text text-anchor="middle" x="27" y="-156.95" font-family="Times,serif" font-size="14.00">d</text>
</g>
<!-- d&#45;&gt;b -->
<g id="edge2" class="edge">
<title>d&#45;&gt;b</title>
<path fill="none" stroke="black" d="M45.81,-148.81C62.59,-137.93 87.39,-121.86 106.59,-109.42"/>
<polygon fill="black" stroke="black" points="108.28,-112.49 114.77,-104.11 104.48,-106.61 108.28,-112.49"/>
</g>
<!-- c -->
<g id="node4" class="node">
<title>c</title>
<ellipse fill="none" stroke="black" cx="99" cy="-162" rx="27" ry="18"/>
<text text-anchor="middle" x="99" y="-156.95" font-family="Times,serif" font-size="14.00">c</text>
</g>
<!-- c&#45;&gt;b -->
<g id="edge3" class="edge">
<title>c&#45;&gt;b</title>
<path fill="none" stroke="black" d="M107.35,-144.76C111.58,-136.55 116.81,-126.37 121.58,-117.09"/>
<polygon fill="black" stroke="black" points="124.54,-118.99 126,-108.49 118.32,-115.79 124.54,-118.99"/>
</g>
<!-- e -->
<g id="node5" class="node">
<title>e</title>
<ellipse fill="none" stroke="black" cx="171" cy="-162" rx="27" ry="18"/>
<text text-anchor="middle" x="171" y="-156.95" font-family="Times,serif" font-size="14.00">e</text>
</g>
<!-- e&#45;&gt;b -->
<g id="edge4" class="edge">
<title>e&#45;&gt;b</title>
<path fill="none" stroke="black" d="M162.65,-144.76C158.42,-136.55 153.19,-126.37 148.42,-117.09"/>
<polygon fill="black" stroke="black" points="151.68,-115.79 144,-108.49 145.46,-118.99 151.68,-115.79"/>
</g>
<!-- f -->
<g id="node6" class="node">
<title>f</title>
<ellipse fill="none" stroke="black" cx="243" cy="-162" rx="27" ry="18"/>
<text text-anchor="middle" x="243" y="-156.95" font-family="Times,serif" font-size="14.00">f</text>
</g>
<!-- f&#45;&gt;b -->
<g id="edge5" class="edge">
<title>f&#45;&gt;b</title>
<path fill="none" stroke="black" d="M224.19,-148.81C207.41,-137.93 182.61,-121.86 163.41,-109.42"/>
<polygon fill="black" stroke="black" points="165.52,-106.61 155.23,-104.11 161.72,-112.49 165.52,-106.61"/>
</g>
</g>
</svg>
