<?xml version="1.0" encoding="UTF-8" standalone="no"?>
<!DOCTYPE svg PUBLIC "-//W3C//DTD SVG 1.1//EN"
 "http://www.w3.org/Graphics/SVG/1.1/DTD/svg11.dtd">
<!-- Generated by graphviz version 11.0.0 (0)
 -->
<!-- Title: Fifth Pages: 1 -->
<svg width="319pt" height="664pt"
 viewBox="0.00 0.00 318.50 663.50" xmlns="http://www.w3.org/2000/svg" xmlns:xlink="http://www.w3.org/1999/xlink">
<g id="graph0" class="graph" transform="scale(1 1) rotate(0) translate(4 659.5)">
<title>Fifth</title>
<polygon fill="white" stroke="none" points="-4,4 -4,-659.5 314.5,-659.5 314.5,4 -4,4"/>
<!-- A -->
<g id="node1" class="node">
<title>A</title>
<ellipse fill="none" stroke="black" cx="93" cy="-637.5" rx="27" ry="18"/>
<text text-anchor="middle" x="93" y="-632.45" font-family="Times,serif" font-size="14.00">A</text>
</g>
<!-- I -->
<g id="node2" class="node">
<title>I</title>
<ellipse fill="none" stroke="black" cx="93" cy="-549" rx="27" ry="18"/>
<text text-anchor="middle" x="93" y="-543.95" font-family="Times,serif" font-size="14.00">I</text>
</g>
<!-- A&#45;&gt;I -->
<g id="edge1" class="edge">
<title>A&#45;&gt;I</title>
<path fill="none" stroke="black" d="M93,-619.41C93,-607.76 93,-592.05 93,-578.52"/>
<polygon fill="black" stroke="black" points="96.5,-578.86 93,-568.86 89.5,-578.86 96.5,-578.86"/>
<text text-anchor="middle" x="96.38" y="-588.2" font-family="Times,serif" font-size="14.00">9</text>
</g>
<!-- J -->
<g id="node4" class="node">
<title>J</title>
<ellipse fill="none" stroke="black" cx="56" cy="-195" rx="27" ry="18"/>
<text text-anchor="middle" x="56" y="-189.95" font-family="Times,serif" font-size="14.00">J</text>
</g>
<!-- I&#45;&gt;J -->
<g id="edge16" class="edge">
<title>I&#45;&gt;J</title>
<path fill="none" stroke="black" d="M80.1,-532.87C67.43,-516.43 50,-488.84 50,-461.5 50,-461.5 50,-461.5 50,-282.5 50,-263.12 51.52,-241.35 53.03,-224.5"/>
<polygon fill="black" stroke="black" points="56.49,-225 53.96,-214.71 49.53,-224.34 56.49,-225"/>
<text text-anchor="middle" x="53.38" y="-366.95" font-family="Times,serif" font-size="14.00">6</text>
</g>
<!-- D -->
<g id="node6" class="node">
<title>D</title>
<ellipse fill="none" stroke="black" cx="136" cy="-460.5" rx="27" ry="18"/>
<text text-anchor="middle" x="136" y="-455.45" font-family="Times,serif" font-size="14.00">D</text>
</g>
<!-- I&#45;&gt;D -->
<g id="edge15" class="edge">
<title>I&#45;&gt;D</title>
<path fill="none" stroke="black" d="M101.09,-531.73C107.18,-519.48 115.65,-502.43 122.73,-488.2"/>
<polygon fill="black" stroke="black" points="125.81,-489.86 127.13,-479.35 119.54,-486.74 125.81,-489.86"/>
<text text-anchor="middle" x="121.38" y="-499.7" font-family="Times,serif" font-size="14.00">4</text>
</g>
<!-- B -->
<g id="node3" class="node">
<title>B</title>
<ellipse fill="none" stroke="black" cx="72" cy="-18" rx="27" ry="18"/>
<text text-anchor="middle" x="72" y="-12.95" font-family="Times,serif" font-size="14.00">B</text>
</g>
<!-- B&#45;&gt;J -->
<g id="edge2" class="edge">
<title>B&#45;&gt;J</title>
<path fill="none" stroke="black" d="M70.41,-36.35C67.66,-66.44 61.98,-128.58 58.63,-165.22"/>
<polygon fill="black" stroke="black" points="55.16,-164.8 57.73,-175.07 62.13,-165.43 55.16,-164.8"/>
<text text-anchor="middle" x="68.38" y="-101.45" font-family="Times,serif" font-size="14.00">7</text>
</g>
<!-- J&#45;&gt;I -->
<g id="edge18" class="edge">
<title>J&#45;&gt;I</title>
<path fill="none" stroke="black" d="M39.8,-209.83C23.26,-225.58 0,-252.98 0,-282.5 0,-461.5 0,-461.5 0,-461.5 0,-495.37 33.48,-519.74 60.27,-533.81"/>
<polygon fill="black" stroke="black" points="58.62,-536.9 69.13,-538.2 61.72,-530.63 58.62,-536.9"/>
<text text-anchor="middle" x="6.75" y="-366.95" font-family="Times,serif" font-size="14.00">15</text>
</g>
<!-- C -->
<g id="node5" class="node">
<title>C</title>
<ellipse fill="none" stroke="black" cx="123" cy="-106.5" rx="27" ry="18"/>
<text text-anchor="middle" x="123" y="-101.45" font-family="Times,serif" font-size="14.00">C</text>
</g>
<!-- J&#45;&gt;C -->
<g id="edge17" class="edge">
<title>J&#45;&gt;C</title>
<path fill="none" stroke="black" d="M75.37,-182.2C84.09,-176.13 93.99,-168.09 101,-159 106.47,-151.91 110.85,-143.25 114.22,-135.07"/>
<polygon fill="black" stroke="black" points="117.45,-136.42 117.66,-125.83 110.89,-133.98 117.45,-136.42"/>
<text text-anchor="middle" x="113.38" y="-145.7" font-family="Times,serif" font-size="14.00">4</text>
</g>
<!-- C&#45;&gt;I -->
<g id="edge4" class="edge">
<title>C&#45;&gt;I</title>
<path fill="none" stroke="black" d="M150.19,-108.87C199.12,-112.96 297,-129.23 297,-194 297,-461.5 297,-461.5 297,-461.5 297,-532.58 190.73,-546.12 131.59,-548.15"/>
<polygon fill="black" stroke="black" points="131.52,-544.65 121.6,-548.38 131.68,-551.64 131.52,-544.65"/>
<text text-anchor="middle" x="303.75" y="-322.7" font-family="Times,serif" font-size="14.00">12</text>
</g>
<!-- C&#45;&gt;B -->
<g id="edge3" class="edge">
<title>C&#45;&gt;B</title>
<path fill="none" stroke="black" d="M113.41,-89.23C106.07,-76.79 95.81,-59.38 87.34,-45.01"/>
<polygon fill="black" stroke="black" points="90.41,-43.34 82.32,-36.5 84.38,-46.89 90.41,-43.34"/>
<text text-anchor="middle" x="108.75" y="-57.2" font-family="Times,serif" font-size="14.00">13</text>
</g>
<!-- C&#45;&gt;J -->
<g id="edge5" class="edge">
<title>C&#45;&gt;J</title>
<path fill="none" stroke="black" d="M108.15,-121.95C102.17,-128.07 95.37,-135.4 89.75,-142.5 83.43,-150.48 77.14,-159.66 71.73,-168.03"/>
<polygon fill="black" stroke="black" points="68.81,-166.1 66.44,-176.43 74.73,-169.83 68.81,-166.1"/>
<text text-anchor="middle" x="94.62" y="-145.7" font-family="Times,serif" font-size="14.00">&#45;1</text>
</g>
<!-- F -->
<g id="node7" class="node">
<title>F</title>
<ellipse fill="none" stroke="black" cx="192" cy="-372" rx="27" ry="18"/>
<text text-anchor="middle" x="192" y="-366.95" font-family="Times,serif" font-size="14.00">F</text>
</g>
<!-- D&#45;&gt;F -->
<g id="edge6" class="edge">
<title>D&#45;&gt;F</title>
<path fill="none" stroke="black" d="M146.27,-443.63C154.43,-431.03 166,-413.16 175.46,-398.55"/>
<polygon fill="black" stroke="black" points="178.29,-400.62 180.78,-390.33 172.41,-396.82 178.29,-400.62"/>
<text text-anchor="middle" x="174.62" y="-411.2" font-family="Times,serif" font-size="14.00">&#45;3</text>
</g>
<!-- H -->
<g id="node8" class="node">
<title>H</title>
<ellipse fill="none" stroke="black" cx="134" cy="-283.5" rx="27" ry="18"/>
<text text-anchor="middle" x="134" y="-278.45" font-family="Times,serif" font-size="14.00">H</text>
</g>
<!-- D&#45;&gt;H -->
<g id="edge7" class="edge">
<title>D&#45;&gt;H</title>
<path fill="none" stroke="black" d="M127.12,-443.23C120.16,-429.5 111.04,-409.08 107.25,-390 104.13,-374.31 104.33,-369.73 107.25,-354 109.97,-339.35 115.66,-323.81 121.1,-311.14"/>
<polygon fill="black" stroke="black" points="124.2,-312.78 125.11,-302.23 117.82,-309.91 124.2,-312.78"/>
<text text-anchor="middle" x="110.38" y="-366.95" font-family="Times,serif" font-size="14.00">1</text>
</g>
<!-- F&#45;&gt;H -->
<g id="edge11" class="edge">
<title>F&#45;&gt;H</title>
<path fill="none" stroke="black" d="M181.36,-355.13C172.86,-342.45 160.78,-324.44 150.95,-309.77"/>
<polygon fill="black" stroke="black" points="153.89,-307.88 145.41,-301.52 148.08,-311.78 153.89,-307.88"/>
<text text-anchor="middle" x="171.38" y="-322.7" font-family="Times,serif" font-size="14.00">9</text>
</g>
<!-- E -->
<g id="node9" class="node">
<title>E</title>
<ellipse fill="none" stroke="black" cx="206" cy="-283.5" rx="27" ry="18"/>
<text text-anchor="middle" x="206" y="-278.45" font-family="Times,serif" font-size="14.00">E</text>
</g>
<!-- F&#45;&gt;E -->
<g id="edge10" class="edge">
<title>F&#45;&gt;E</title>
<path fill="none" stroke="black" d="M194.77,-353.91C196.65,-342.26 199.19,-326.55 201.38,-313.02"/>
<polygon fill="black" stroke="black" points="204.81,-313.78 202.95,-303.34 197.9,-312.66 204.81,-313.78"/>
<text text-anchor="middle" x="206.75" y="-322.7" font-family="Times,serif" font-size="14.00">15</text>
</g>
<!-- H&#45;&gt;D -->
<g id="edge14" class="edge">
<title>H&#45;&gt;D</title>
<path fill="none" stroke="black" d="M134.2,-301.85C134.54,-331.94 135.25,-394.08 135.67,-430.72"/>
<polygon fill="black" stroke="black" points="132.17,-430.61 135.78,-440.57 139.17,-430.53 132.17,-430.61"/>
<text text-anchor="middle" x="140.62" y="-366.95" font-family="Times,serif" font-size="14.00">&#45;4</text>
</g>
<!-- E&#45;&gt;D -->
<g id="edge8" class="edge">
<title>E&#45;&gt;D</title>
<path fill="none" stroke="black" d="M215.52,-300.66C226.79,-322.07 242.33,-360.56 228,-390 215.81,-415.06 189.67,-433.42 168.35,-444.95"/>
<polygon fill="black" stroke="black" points="167.02,-441.7 159.71,-449.37 170.21,-447.93 167.02,-441.7"/>
<text text-anchor="middle" x="239.75" y="-366.95" font-family="Times,serif" font-size="14.00">14</text>
</g>
<!-- G -->
<g id="node10" class="node">
<title>G</title>
<ellipse fill="none" stroke="black" cx="172" cy="-195" rx="27" ry="18"/>
<text text-anchor="middle" x="172" y="-189.95" font-family="Times,serif" font-size="14.00">G</text>
</g>
<!-- E&#45;&gt;G -->
<g id="edge9" class="edge">
<title>E&#45;&gt;G</title>
<path fill="none" stroke="black" d="M188.94,-269.34C182.62,-263.42 176.17,-255.88 172.75,-247.5 169.87,-240.44 168.83,-232.36 168.71,-224.73"/>
<polygon fill="black" stroke="black" points="172.21,-224.97 169.12,-214.84 165.21,-224.69 172.21,-224.97"/>
<text text-anchor="middle" x="177.62" y="-234.2" font-family="Times,serif" font-size="14.00">&#45;4</text>
</g>
<!-- G&#45;&gt;C -->
<g id="edge12" class="edge">
<title>G&#45;&gt;C</title>
<path fill="none" stroke="black" d="M162.78,-177.73C155.73,-165.29 145.87,-147.88 137.73,-133.51"/>
<polygon fill="black" stroke="black" points="140.9,-131.99 132.92,-125.01 134.8,-135.44 140.9,-131.99"/>
<text text-anchor="middle" x="156.62" y="-145.7" font-family="Times,serif" font-size="14.00">&#45;4</text>
</g>
<!-- G&#45;&gt;E -->
<g id="edge13" class="edge">
<title>G&#45;&gt;E</title>
<path fill="none" stroke="black" d="M178.65,-212.92C183.4,-224.99 189.87,-241.47 195.34,-255.37"/>
<polygon fill="black" stroke="black" points="191.98,-256.39 198.89,-264.41 198.49,-253.83 191.98,-256.39"/>
<text text-anchor="middle" x="195.38" y="-234.2" font-family="Times,serif" font-size="14.00">6</text>
</g>
</g>
</svg>
