<?xml version="1.0" encoding="UTF-8" standalone="no"?>
<!DOCTYPE svg PUBLIC "-//W3C//DTD SVG 1.1//EN"
 "http://www.w3.org/Graphics/SVG/1.1/DTD/svg11.dtd">
<!-- Generated by graphviz version 12.1.2 (0)
 -->
<!-- Title: Fifth Pages: 1 -->
<svg width="597pt" height="120pt"
 viewBox="0.00 0.00 596.97 120.13" xmlns="http://www.w3.org/2000/svg" xmlns:xlink="http://www.w3.org/1999/xlink">
<g id="graph0" class="graph" transform="scale(1 1) rotate(0) translate(4 116.13)">
<title>Fifth</title>
<polygon fill="white" stroke="none" points="-4,4 -4,-116.13 592.97,-116.13 592.97,4 -4,4"/>
<!-- q -->
<g id="node1" class="node">
<title>q</title>
<polygon fill="#a2e4b8" stroke="none" points="0.72,-48.72 0,-48.72 0,-47.28 0.72,-47.28 0.72,-48.72"/>
</g>
<!-- q0 -->
<g id="node3" class="node">
<title>q0</title>
<ellipse fill="#a2e4b8" stroke="black" cx="64.72" cy="-48" rx="27" ry="18"/>
<text text-anchor="middle" x="64.72" y="-42.95" font-family="Times,serif" font-size="14.00">q0</text>
</g>
<!-- q&#45;&gt;q0 -->
<g id="edge1" class="edge">
<title>q&#45;&gt;q0</title>
<path fill="none" stroke="black" d="M0.77,-48C1.57,-48 12.96,-48 25.83,-48"/>
<polygon fill="black" stroke="black" points="25.79,-51.5 35.79,-48 25.79,-44.5 25.79,-51.5"/>
</g>
<!-- q6 -->
<g id="node2" class="node">
<title>q6</title>
<ellipse fill="#a2e4b8" stroke="black" cx="561.97" cy="-88" rx="20.13" ry="20.13"/>
<ellipse fill="none" stroke="black" cx="561.97" cy="-88" rx="24.13" ry="24.13"/>
<text text-anchor="middle" x="561.97" y="-82.95" font-family="Times,serif" font-size="14.00">q6</text>
</g>
<!-- q1 -->
<g id="node4" class="node">
<title>q1</title>
<ellipse fill="#a2e4b8" stroke="black" cx="166.72" cy="-48" rx="27" ry="18"/>
<text text-anchor="middle" x="166.72" y="-42.95" font-family="Times,serif" font-size="14.00">q1</text>
</g>
<!-- q0&#45;&gt;q1 -->
<g id="edge2" class="edge">
<title>q0&#45;&gt;q1</title>
<path fill="none" stroke="black" d="M91.99,-48C102.93,-48 115.84,-48 127.77,-48"/>
<polygon fill="black" stroke="black" points="127.76,-51.5 137.76,-48 127.76,-44.5 127.76,-51.5"/>
<text text-anchor="middle" x="115.72" y="-51.2" font-family="Times,serif" font-size="14.00">%</text>
</g>
<!-- q2 -->
<g id="node5" class="node">
<title>q2</title>
<ellipse fill="#a2e4b8" stroke="black" cx="264.97" cy="-48" rx="27" ry="18"/>
<text text-anchor="middle" x="264.97" y="-42.95" font-family="Times,serif" font-size="14.00">q2</text>
</g>
<!-- q1&#45;&gt;q2 -->
<g id="edge3" class="edge">
<title>q1&#45;&gt;q2</title>
<path fill="none" stroke="black" d="M194.02,-48C203.99,-48 215.55,-48 226.37,-48"/>
<polygon fill="black" stroke="black" points="226.19,-51.5 236.19,-48 226.19,-44.5 226.19,-51.5"/>
<text text-anchor="middle" x="215.85" y="-51.2" font-family="Times,serif" font-size="14.00">+</text>
</g>
<!-- q3 -->
<g id="node6" class="node">
<title>q3</title>
<ellipse fill="#a2e4b8" stroke="black" cx="361.72" cy="-85" rx="27" ry="18"/>
<text text-anchor="middle" x="361.72" y="-79.95" font-family="Times,serif" font-size="14.00">q3</text>
</g>
<!-- q2&#45;&gt;q3 -->
<g id="edge4" class="edge">
<title>q2&#45;&gt;q3</title>
<path fill="none" stroke="black" d="M288.91,-56.96C300.43,-61.46 314.61,-66.99 327.31,-71.95"/>
<polygon fill="black" stroke="black" points="326,-75.2 336.59,-75.58 328.54,-68.68 326,-75.2"/>
<text text-anchor="middle" x="313.35" y="-70.81" font-family="Times,serif" font-size="14.00">x</text>
</g>
<!-- q4 -->
<g id="node7" class="node">
<title>q4</title>
<ellipse fill="#a2e4b8" stroke="black" cx="459.97" cy="-48" rx="27" ry="18"/>
<text text-anchor="middle" x="459.97" y="-42.95" font-family="Times,serif" font-size="14.00">q4</text>
</g>
<!-- q3&#45;&gt;q4 -->
<g id="edge5" class="edge">
<title>q3&#45;&gt;q4</title>
<path fill="none" stroke="black" d="M385.53,-76.23C397.43,-71.66 412.22,-65.97 425.4,-60.91"/>
<polygon fill="black" stroke="black" points="426.5,-64.23 434.58,-57.38 423.99,-57.7 426.5,-64.23"/>
<text text-anchor="middle" x="410.85" y="-70.81" font-family="Times,serif" font-size="14.00">+</text>
</g>
<!-- q4&#45;&gt;q6 -->
<g id="edge7" class="edge">
<title>q4&#45;&gt;q6</title>
<path fill="none" stroke="black" d="M483.66,-57.08C496.89,-62.37 513.79,-69.13 528.41,-74.98"/>
<polygon fill="black" stroke="black" points="527.07,-78.21 537.65,-78.67 529.67,-71.71 527.07,-78.21"/>
<text text-anchor="middle" x="510.97" y="-73.59" font-family="Times,serif" font-size="14.00">%</text>
</g>
<!-- q4&#45;&gt;q2 -->
<g id="edge8" class="edge">
<title>q4&#45;&gt;q2</title>
<path fill="none" stroke="black" d="M432.99,-45.02C419.76,-43.65 403.4,-42.18 388.72,-41.5 364.75,-40.39 358.69,-40.37 334.72,-41.5 324.56,-41.98 313.59,-42.85 303.46,-43.81"/>
<polygon fill="black" stroke="black" points="303.15,-40.32 293.55,-44.8 303.85,-47.29 303.15,-40.32"/>
<text text-anchor="middle" x="361.72" y="-44.7" font-family="Times,serif" font-size="14.00">+</text>
</g>
<!-- q5 -->
<g id="node8" class="node">
<title>q5</title>
<ellipse fill="#a2e4b8" stroke="black" cx="561.97" cy="-18" rx="27" ry="18"/>
<text text-anchor="middle" x="561.97" y="-12.95" font-family="Times,serif" font-size="14.00">q5</text>
</g>
<!-- q4&#45;&gt;q5 -->
<g id="edge6" class="edge">
<title>q4&#45;&gt;q5</title>
<path fill="none" stroke="black" d="M485.18,-40.74C497.46,-37.05 512.6,-32.51 526.12,-28.46"/>
<polygon fill="black" stroke="black" points="526.96,-31.86 535.54,-25.63 524.95,-25.15 526.96,-31.86"/>
<text text-anchor="middle" x="510.97" y="-38" font-family="Times,serif" font-size="14.00">?</text>
</g>
<!-- q5&#45;&gt;q4 -->
<g id="edge9" class="edge">
<title>q5&#45;&gt;q4</title>
<path fill="none" stroke="black" d="M537.26,-9.89C527.07,-7.65 515.19,-6.74 504.97,-10.5 496.68,-13.55 488.89,-18.94 482.24,-24.69"/>
<polygon fill="black" stroke="black" points="479.87,-22.11 475.03,-31.54 484.69,-27.19 479.87,-22.11"/>
<text text-anchor="middle" x="510.97" y="-13.7" font-family="Times,serif" font-size="14.00">?</text>
</g>
</g>
</svg>
