<?xml version="1.0" encoding="UTF-8" standalone="no"?>
<!DOCTYPE svg PUBLIC "-//W3C//DTD SVG 1.1//EN"
 "http://www.w3.org/Graphics/SVG/1.1/DTD/svg11.dtd">
<!-- Generated by graphviz version 11.0.0 (0)
 -->
<!-- Title: Fifth Pages: 1 -->
<svg width="446pt" height="575pt"
 viewBox="0.00 0.00 445.90 575.00" xmlns="http://www.w3.org/2000/svg" xmlns:xlink="http://www.w3.org/1999/xlink">
<g id="graph0" class="graph" transform="scale(1 1) rotate(0) translate(4 571)">
<title>Fifth</title>
<polygon fill="white" stroke="none" points="-4,4 -4,-571 441.9,-571 441.9,4 -4,4"/>
<!-- A -->
<g id="node1" class="node">
<title>A</title>
<ellipse fill="none" stroke="black" cx="341.65" cy="-549" rx="27" ry="18"/>
<text text-anchor="middle" x="341.65" y="-543.95" font-family="Times,serif" font-size="14.00">A</text>
</g>
<!-- E -->
<g id="node2" class="node">
<title>E</title>
<ellipse fill="none" stroke="black" cx="306.65" cy="-460.5" rx="27" ry="18"/>
<text text-anchor="middle" x="306.65" y="-455.45" font-family="Times,serif" font-size="14.00">E</text>
</g>
<!-- A&#45;&gt;E -->
<g id="edge1" class="edge">
<title>A&#45;&gt;E</title>
<path fill="none" stroke="black" d="M334.9,-531.32C330.01,-519.24 323.29,-502.63 317.63,-488.64"/>
<polygon fill="black" stroke="black" points="320.94,-487.49 313.95,-479.53 314.45,-490.11 320.94,-487.49"/>
<text text-anchor="middle" x="330.02" y="-499.7" font-family="Times,serif" font-size="14.00">7</text>
</g>
<!-- H -->
<g id="node6" class="node">
<title>H</title>
<ellipse fill="none" stroke="black" cx="281.65" cy="-372" rx="27" ry="18"/>
<text text-anchor="middle" x="281.65" y="-366.95" font-family="Times,serif" font-size="14.00">H</text>
</g>
<!-- E&#45;&gt;H -->
<g id="edge5" class="edge">
<title>E&#45;&gt;H</title>
<path fill="none" stroke="black" d="M301.71,-442.41C298.29,-430.56 293.65,-414.52 289.7,-400.84"/>
<polygon fill="black" stroke="black" points="293.14,-400.14 287,-391.51 286.41,-402.09 293.14,-400.14"/>
<text text-anchor="middle" x="299.02" y="-411.2" font-family="Times,serif" font-size="14.00">1</text>
</g>
<!-- G -->
<g id="node7" class="node">
<title>G</title>
<ellipse fill="none" stroke="black" cx="342.65" cy="-18" rx="27" ry="18"/>
<text text-anchor="middle" x="342.65" y="-12.95" font-family="Times,serif" font-size="14.00">G</text>
</g>
<!-- E&#45;&gt;G -->
<g id="edge4" class="edge">
<title>E&#45;&gt;G</title>
<path fill="none" stroke="black" d="M326.48,-447.89C348.4,-433.4 380.65,-406.4 380.65,-373 380.65,-373 380.65,-373 380.65,-105.5 380.65,-83.49 370.21,-60.8 360.28,-44.18"/>
<polygon fill="black" stroke="black" points="363.38,-42.53 355.07,-35.95 357.46,-46.27 363.38,-42.53"/>
<text text-anchor="middle" x="387.4" y="-234.2" font-family="Times,serif" font-size="14.00">13</text>
</g>
<!-- B -->
<g id="node3" class="node">
<title>B</title>
<ellipse fill="none" stroke="black" cx="241.65" cy="-195" rx="27" ry="18"/>
<text text-anchor="middle" x="241.65" y="-189.95" font-family="Times,serif" font-size="14.00">B</text>
</g>
<!-- I -->
<g id="node4" class="node">
<title>I</title>
<ellipse fill="none" stroke="black" cx="241.65" cy="-106.5" rx="27" ry="18"/>
<text text-anchor="middle" x="241.65" y="-101.45" font-family="Times,serif" font-size="14.00">I</text>
</g>
<!-- B&#45;&gt;I -->
<g id="edge2" class="edge">
<title>B&#45;&gt;I</title>
<path fill="none" stroke="black" d="M241.65,-176.91C241.65,-165.26 241.65,-149.55 241.65,-136.02"/>
<polygon fill="black" stroke="black" points="245.15,-136.36 241.65,-126.36 238.15,-136.36 245.15,-136.36"/>
<text text-anchor="middle" x="245.02" y="-145.7" font-family="Times,serif" font-size="14.00">9</text>
</g>
<!-- C -->
<g id="node5" class="node">
<title>C</title>
<ellipse fill="none" stroke="black" cx="133.65" cy="-18" rx="27" ry="18"/>
<text text-anchor="middle" x="133.65" y="-12.95" font-family="Times,serif" font-size="14.00">C</text>
</g>
<!-- I&#45;&gt;C -->
<g id="edge14" class="edge">
<title>I&#45;&gt;C</title>
<path fill="none" stroke="black" d="M231.63,-89.63C224.1,-78.63 212.99,-64.18 200.65,-54 190.5,-45.62 178.02,-38.44 166.59,-32.8"/>
<polygon fill="black" stroke="black" points="168.4,-29.78 157.86,-28.7 165.43,-36.12 168.4,-29.78"/>
<text text-anchor="middle" x="219.02" y="-57.2" font-family="Times,serif" font-size="14.00">3</text>
</g>
<!-- I&#45;&gt;G -->
<g id="edge15" class="edge">
<title>I&#45;&gt;G</title>
<path fill="none" stroke="black" d="M247.54,-88.44C252.04,-77.46 259.18,-63.52 269.15,-54 279.93,-43.71 294.3,-35.95 307.48,-30.39"/>
<polygon fill="black" stroke="black" points="308.7,-33.67 316.75,-26.78 306.16,-27.15 308.7,-33.67"/>
<text text-anchor="middle" x="275.4" y="-57.2" font-family="Times,serif" font-size="14.00">11</text>
</g>
<!-- C&#45;&gt;H -->
<g id="edge3" class="edge">
<title>C&#45;&gt;H</title>
<path fill="none" stroke="black" d="M110.2,-27.33C80.65,-39.51 33.65,-65.21 33.65,-105.5 33.65,-284.5 33.65,-284.5 33.65,-284.5 33.65,-328.47 174.38,-355.28 243.82,-365.83"/>
<polygon fill="black" stroke="black" points="243.21,-369.28 253.61,-367.28 244.23,-362.36 243.21,-369.28"/>
<text text-anchor="middle" x="40.4" y="-189.95" font-family="Times,serif" font-size="14.00">13</text>
</g>
<!-- J -->
<g id="node10" class="node">
<title>J</title>
<ellipse fill="none" stroke="black" cx="241.65" cy="-283.5" rx="27" ry="18"/>
<text text-anchor="middle" x="241.65" y="-278.45" font-family="Times,serif" font-size="14.00">J</text>
</g>
<!-- H&#45;&gt;J -->
<g id="edge13" class="edge">
<title>H&#45;&gt;J</title>
<path fill="none" stroke="black" d="M273.94,-354.32C268.29,-342.12 260.52,-325.3 254.01,-311.23"/>
<polygon fill="black" stroke="black" points="257.35,-310.11 249.97,-302.5 250.99,-313.05 257.35,-310.11"/>
<text text-anchor="middle" x="268.02" y="-322.7" font-family="Times,serif" font-size="14.00">6</text>
</g>
<!-- G&#45;&gt;A -->
<g id="edge10" class="edge">
<title>G&#45;&gt;A</title>
<path fill="none" stroke="black" d="M363.85,-29.2C388.73,-42.82 426.65,-69.5 426.65,-105.5 426.65,-461.5 426.65,-461.5 426.65,-461.5 426.65,-493.19 397.27,-517.51 373.06,-532.18"/>
<polygon fill="black" stroke="black" points="371.36,-529.12 364.41,-537.12 374.83,-535.2 371.36,-529.12"/>
<text text-anchor="middle" x="432.27" y="-278.45" font-family="Times,serif" font-size="14.00">&#45;2</text>
</g>
<!-- G&#45;&gt;H -->
<g id="edge11" class="edge">
<title>G&#45;&gt;H</title>
<path fill="none" stroke="black" d="M342.65,-36.23C342.65,-53.69 342.65,-81.47 342.65,-105.5 342.65,-284.5 342.65,-284.5 342.65,-284.5 342.65,-310.48 324.05,-334.14 307.39,-350.12"/>
<polygon fill="black" stroke="black" points="305.15,-347.43 300.09,-356.74 309.85,-352.62 305.15,-347.43"/>
<text text-anchor="middle" x="346.02" y="-189.95" font-family="Times,serif" font-size="14.00">2</text>
</g>
<!-- G&#45;&gt;J -->
<g id="edge12" class="edge">
<title>G&#45;&gt;J</title>
<path fill="none" stroke="black" d="M335.72,-35.64C333.38,-41.42 330.82,-47.97 328.65,-54 303.52,-123.83 306.15,-144.48 277.65,-213 271.53,-227.7 263.47,-243.51 256.53,-256.33"/>
<polygon fill="black" stroke="black" points="253.53,-254.53 251.76,-264.98 259.65,-257.91 253.53,-254.53"/>
<text text-anchor="middle" x="305.02" y="-145.7" font-family="Times,serif" font-size="14.00">3</text>
</g>
<!-- F -->
<g id="node8" class="node">
<title>F</title>
<ellipse fill="none" stroke="black" cx="122.65" cy="-195" rx="27" ry="18"/>
<text text-anchor="middle" x="122.65" y="-189.95" font-family="Times,serif" font-size="14.00">F</text>
</g>
<!-- F&#45;&gt;E -->
<g id="edge8" class="edge">
<title>F&#45;&gt;E</title>
<path fill="none" stroke="black" d="M101.77,-206.69C60.23,-229.41 -25.94,-284.62 8.4,-336 67.3,-424.13 201.97,-449.45 268.3,-456.66"/>
<polygon fill="black" stroke="black" points="267.67,-460.12 277.97,-457.63 268.37,-453.15 267.67,-460.12"/>
<text text-anchor="middle" x="14.27" y="-322.7" font-family="Times,serif" font-size="14.00">&#45;4</text>
</g>
<!-- F&#45;&gt;I -->
<g id="edge9" class="edge">
<title>F&#45;&gt;I</title>
<path fill="none" stroke="black" d="M131.23,-177.8C137.83,-166.65 147.83,-152.15 159.9,-142.5 173.48,-131.64 190.94,-123.56 206.24,-117.91"/>
<polygon fill="black" stroke="black" points="207.16,-121.3 215.47,-114.73 204.88,-114.68 207.16,-121.3"/>
<text text-anchor="middle" x="164.02" y="-145.7" font-family="Times,serif" font-size="14.00">8</text>
</g>
<!-- F&#45;&gt;C -->
<g id="edge6" class="edge">
<title>F&#45;&gt;C</title>
<path fill="none" stroke="black" d="M111.57,-178.34C98.44,-157.8 79.46,-120.6 88.9,-88.5 93.77,-71.93 103.95,-55.59 113.37,-42.91"/>
<polygon fill="black" stroke="black" points="116.01,-45.22 119.4,-35.19 110.49,-40.92 116.01,-45.22"/>
<text text-anchor="middle" x="93.02" y="-101.45" font-family="Times,serif" font-size="14.00">9</text>
</g>
<!-- D -->
<g id="node9" class="node">
<title>D</title>
<ellipse fill="none" stroke="black" cx="131.65" cy="-106.5" rx="27" ry="18"/>
<text text-anchor="middle" x="131.65" y="-101.45" font-family="Times,serif" font-size="14.00">D</text>
</g>
<!-- F&#45;&gt;D -->
<g id="edge7" class="edge">
<title>F&#45;&gt;D</title>
<path fill="none" stroke="black" d="M121.97,-176.77C121.81,-166.73 122,-153.86 123.4,-142.5 123.68,-140.27 124.04,-137.97 124.45,-135.68"/>
<polygon fill="black" stroke="black" points="127.87,-136.45 126.55,-125.94 121.03,-134.97 127.87,-136.45"/>
<text text-anchor="middle" x="129.27" y="-145.7" font-family="Times,serif" font-size="14.00">&#45;1</text>
</g>
<!-- J&#45;&gt;B -->
<g id="edge16" class="edge">
<title>J&#45;&gt;B</title>
<path fill="none" stroke="black" d="M241.65,-265.41C241.65,-253.76 241.65,-238.05 241.65,-224.52"/>
<polygon fill="black" stroke="black" points="245.15,-224.86 241.65,-214.86 238.15,-224.86 245.15,-224.86"/>
<text text-anchor="middle" x="248.4" y="-234.2" font-family="Times,serif" font-size="14.00">11</text>
</g>
<!-- J&#45;&gt;C -->
<g id="edge17" class="edge">
<title>J&#45;&gt;C</title>
<path fill="none" stroke="black" d="M232.2,-266.33C224.38,-252.49 213.34,-231.87 205.65,-213 183.81,-159.43 188.87,-142.32 167.65,-88.5 161.88,-73.86 154.26,-58.06 147.71,-45.23"/>
<polygon fill="black" stroke="black" points="150.93,-43.84 143.21,-36.58 144.72,-47.07 150.93,-43.84"/>
<text text-anchor="middle" x="191.02" y="-145.7" font-family="Times,serif" font-size="14.00">4</text>
</g>
<!-- J&#45;&gt;F -->
<g id="edge18" class="edge">
<title>J&#45;&gt;F</title>
<path fill="none" stroke="black" d="M217.64,-274.52C201.95,-268.59 181.55,-259.46 165.9,-247.5 156.26,-240.13 147.32,-230.26 140.1,-221.13"/>
<polygon fill="black" stroke="black" points="142.96,-219.12 134.15,-213.23 137.37,-223.33 142.96,-219.12"/>
<text text-anchor="middle" x="170.02" y="-234.2" font-family="Times,serif" font-size="14.00">7</text>
</g>
</g>
</svg>
